o convex_0
v 0.0807111 0.400493 0.168068
v 0.120366 0.400493 0.141631
v 0.133584 0.404899 0.132831
v 0.130651 0.397556 0.13428
v 0.104214 0.397556 0.151916
v 0.0777778 0.397556 0.169516
v 0.0770535 0.39572 0.168792
v 0.12989 0.39572 0.133555
v 0.127681 0.394635 0.131346
v 0.0748444 0.394635 0.166583
v 0.0616262 0.394635 0.171001
v 0.0638352 0.39572 0.173174
v 0.0645595 0.397556 0.173934
v 0.0748444 0.399024 0.171001
v 0.0616262 0.399024 0.175383
v 0.0616262 0.396087 0.173934
v 0.0197985 0.39572 0.18201
v 0.0175894 0.396087 0.182735
v 0.0175894 0.399024 0.184219
v 0.0616262 0.53114 0.175383
v 0.0748444 0.53114 0.171001
v 0.0770535 0.537749 0.168792
v 0.0638352 0.537749 0.173174
v 0.0572442 0.535546 0.175383
v 0.0197985 0.537749 0.18201
v 0.0131713 0.535546 0.184219
v 0.0146561 0.54142 0.18125
v 0.0586928 0.54142 0.17245
v 0.0726353 0.542155 0.168792
v -0.00145934 0.542889 0.182735
v -1.076e-05 0.539952 0.184219
v 0.0175894 0.53114 0.184219
v -0.017611 0.399024 0.184219
v -0.017611 0.53114 0.184219
v -0.0616477 0.53114 0.175383
v -0.0616477 0.399024 0.175383
v -0.0638568 0.396821 0.174297
v -0.0748659 0.399024 0.171001
v -0.0748659 0.53114 0.171001
v -0.0807327 0.53114 0.168068
v -0.0807327 0.399024 0.168068
v -0.077075 0.396821 0.169878
v -0.0748659 0.396087 0.169516
v -0.0616477 0.396087 0.173934
v -0.017611 0.396087 0.182735
v -0.0616477 0.394635 0.171001
v -0.0748659 0.394635 0.166583
v -0.0792841 0.39572 0.167126
v -0.118903 0.39572 0.140726
v -0.129912 0.396821 0.134642
v -0.130672 0.396087 0.132831
v -0.127703 0.394635 0.131346
v -0.149757 0.39572 0.105489
v -0.152691 0.396087 0.101976
v -0.15193 0.396821 0.103823
v -0.151206 0.399024 0.106395
v -0.168842 0.399024 0.0799581
v -0.169567 0.396821 0.0773869
v -0.170291 0.396087 0.0755761
v -0.167358 0.39572 0.0790527
v -0.149757 0.394635 0.100528
v -0.167358 0.394635 0.0740913
v -0.171776 0.394635 0.0608731
v -0.174709 0.396087 0.0623579
v -0.171776 0.399024 0.0740913
v -0.168842 0.53114 0.0799581
v -0.171776 0.53114 0.0740913
v -0.176158 0.53114 0.0608731
v -0.176158 0.399024 0.0608731
v -0.184994 0.399024 0.0124182
v -0.184994 0.40343 0.0168364
v -0.184994 0.53114 0.0168364
v -0.175071 0.533343 0.0630822
v -0.170653 0.533343 0.0763004
v -0.169023 0.535546 0.0785095
v -0.133606 0.53114 0.132831
v -0.133606 0.40343 0.132831
v -0.120387 0.399024 0.141631
v -0.0983691 0.535546 0.154849
v -0.120025 0.542155 0.137974
v -0.0803705 0.542155 0.164374
v -0.0851508 0.535546 0.16365
v -0.0759524 0.537749 0.168792
v -0.0715704 0.542155 0.168792
v -0.0710272 0.539952 0.169878
v -0.0754091 0.535546 0.169878
v -0.0621909 0.535546 0.174297
v -0.0572657 0.535546 0.175383
v -0.0587143 0.538483 0.173934
v -0.0131928 0.535546 0.184219
v -0.0146776 0.538483 0.182735
v -0.0675144 0.542889 0.169516
v -0.0763507 0.542889 0.165098
v -0.0798273 0.543256 0.162165
v -0.106264 0.543256 0.144565
v -0.0748659 0.544358 0.162165
v -0.0660658 0.544358 0.166583
v -1.076e-05 0.544358 0.179801
v -0.00440819 0.590202 0.0520773
v 0.00438667 0.590202 0.0520773
v 0.0189009 0.590202 0.0489846
v 0.0660443 0.544358 0.166583
v 0.044026 0.544358 0.171001
v 0.0645595 0.542889 0.169516
v 0.0814354 0.542155 0.164374
v 0.0748444 0.544358 0.162165
v 0.12109 0.542155 0.137974
v 0.133584 0.532608 0.132831
v 0.12989 0.537749 0.133555
v 0.134308 0.537749 0.129137
v 0.138727 0.542155 0.120337
v 0.127681 0.544358 0.126928
v 0.0330104 0.590202 0.0410736
v 0.0334286 0.590202 0.0406621
v 0.0418187 0.590202 0.03226
v 0.162918 0.544358 0.0740913
v 0.165127 0.542155 0.0806824
v 0.160745 0.537749 0.0895187
v 0.168821 0.532608 0.0799581
v 0.0807111 0.532608 0.168068
v 0.168821 0.400493 0.0799581
v 0.171754 0.53114 0.0740913
v 0.169545 0.537749 0.0763004
v 0.169545 0.542155 0.0675003
v 0.173927 0.537749 0.058664
v 0.176136 0.53114 0.0608731
v 0.176136 0.399024 0.0608731
v 0.184972 0.40343 0.0168364
v 0.180554 0.399024 0.0388547
v 0.174688 0.396087 0.0608731
v 0.179069 0.396087 0.0388547
v 0.178345 0.39572 0.0410638
v 0.173927 0.39572 0.0630822
v 0.174688 0.397556 0.0638065
v 0.171754 0.399024 0.0740913
v 0.170269 0.397556 0.0770247
v 0.169545 0.39572 0.0763004
v 0.171754 0.394635 0.0608731
v 0.176136 0.394635 0.0388547
v 0.180554 0.394635 0.0124182
v 0.176136 0.394635 -0.00514577
v 0.180554 0.394635 -0.000763817
v 0.182763 0.39572 0.0146273
v 0.183488 0.396087 0.0124182
v 0.183488 0.396087 -0.000763817
v 0.181097 0.39572 -0.00514577
v 0.177621 0.396087 -0.00807912
v 0.181641 0.396821 -0.00735484
v 0.177621 0.404899 -0.0257155
v 0.181641 0.401227 -0.0161549
v 0.172841 0.418852 -0.0558097
v 0.168821 0.422523 -0.0653341
v 0.168821 0.418117 -0.056534
v 0.071911 0.457755 -0.171044
v 0.168422 0.427664 -0.0734099
v 0.173384 0.425461 -0.0624007
v 0.179432 0.414446 -0.0381733
v 0.17505 0.427664 -0.0601916
v 0.180554 0.416649 -0.0359642
v 0.176136 0.429867 -0.0580188
v 0.184972 0.407837 -0.0139459
v 0.176136 0.53114 -0.0580188
v 0.171754 0.434273 -0.0712008
v 0.170632 0.43207 -0.0734099
v 0.16404 0.43207 -0.08221
v 0.151184 0.440131 -0.100571
v 0.154661 0.439764 -0.0976373
v 0.155603 0.443068 -0.0991221
v 0.164403 0.438662 -0.0859039
v 0.164403 0.53114 -0.0859039
v 0.137966 0.53114 -0.125522
v 0.137966 0.456287 -0.125522
v 0.137061 0.452982 -0.124074
v 0.135395 0.454084 -0.126283
v 0.133584 0.453349 -0.127007
v 0.0939294 0.457755 -0.157826
v 0.107148 0.457755 -0.149026
v 0.108995 0.45849 -0.148301
v 0.111566 0.460693 -0.147541
v 0.0983476 0.460693 -0.156377
v 0.0957763 0.45849 -0.157101
v 0.073758 0.45849 -0.17032
v 0.0763292 0.460693 -0.169595
v 0.0704263 0.460693 -0.172529
v 0.00585597 0.457755 -0.184262
v 0.0351896 0.465099 -0.181329
v 0.0572442 0.465099 -0.176911
v 0.0704263 0.535546 -0.172529
v 0.0851293 0.53114 -0.165177
v 0.0726353 0.537749 -0.171406
v 0.0836445 0.535546 -0.165358
v 0.0858536 0.542155 -0.160397
v 0.0704263 0.54142 -0.169595
v 0.0528261 0.539952 -0.174158
v 0.0594171 0.542155 -0.171406
v 0.00878934 0.539952 -0.182958
v 0.050617 0.537749 -0.175824
v 0.0594171 0.533343 -0.175824
v 0.0572442 0.53114 -0.176911
v 0.0131713 0.53114 -0.185711
v 0.0131713 0.465099 -0.185711
v -0.0043927 0.460693 -0.185711
v 0.00437118 0.460693 -0.185711
v -0.00294413 0.457755 -0.184262
v -0.0110199 0.45849 -0.183538
v -0.0689992 0.457755 -0.171044
v -0.0043927 0.456287 -0.181329
v 0.00437118 0.456287 -0.181329
v -0.176158 0.394635 -0.00514577
v -0.0704478 0.456287 -0.168111
v -0.0763507 0.459224 -0.169595
v -0.0814569 0.45849 -0.165902
v -0.168842 0.423992 -0.0682675
v -0.168842 0.419586 -0.0594674
v -0.177642 0.397556 -0.0110125
v -0.182785 0.396821 -0.00735484
v -0.180576 0.394635 -0.000763817
v 0.0704263 0.456287 -0.168111
v -0.017611 0.394635 0.179801
v 0.0175894 0.394635 0.179801
v -0.01982 0.396821 0.183097
v -0.180576 0.394635 0.0124182
v -0.183509 0.396087 0.013903
v -0.184994 0.399024 -0.000763817
v -0.184994 0.53114 -0.0139459
v -0.184994 0.535546 -0.00956391
v -0.176158 0.53114 -0.0580188
v -0.176158 0.535546 -0.0536006
v -0.175071 0.536096 -0.0580188
v -0.182024 0.54142 -0.00956391
v -0.173224 0.54142 -0.0536006
v -0.170653 0.540502 -0.0668189
v -0.171776 0.535546 -0.0712008
v -0.170291 0.537014 -0.0741342
v -0.169567 0.53885 -0.0734099
v -0.160766 0.541053 -0.0866282
v -0.168842 0.54142 -0.0712008
v -0.160766 0.543256 -0.08221
v -0.169567 0.543256 -0.0646098
v -0.174709 0.542889 -0.0403824
v -0.178367 0.543256 -0.0205731
v -0.176158 0.544358 -0.018364
v -0.167358 0.544358 -0.0624007
v -0.154139 0.548764 -0.0624007
v -0.0472629 0.590202 -0.02244
v -0.0459679 0.590202 -0.0247098
v -0.0490299 0.590202 -0.0183783
v -0.0528608 0.590202 -0.000751132
v -0.176158 0.544358 0.0168364
v -0.179091 0.542889 0.0168364
v -0.170291 0.542889 0.0608731
v -0.175071 0.542155 0.0410638
v -0.170653 0.542155 0.0630822
v -0.166271 0.542155 0.0763004
v -0.169023 0.539952 0.0740913
v -0.175071 0.537749 0.0542821
v -0.173405 0.539952 0.0564912
v -0.177823 0.539952 0.0344366
v -0.182205 0.539952 0.0124182
v -0.183871 0.537749 0.0102454
v -0.182024 0.54142 0.00803628
v -0.179453 0.542155 0.0190455
v -0.184994 0.535546 0.00803628
v -0.183871 0.533343 0.0190455
v -0.170653 0.537749 0.0718823
v -0.164062 0.542155 0.0806824
v -0.163519 0.543256 0.0785095
v -0.137625 0.542155 0.120337
v -0.142587 0.535546 0.118128
v -0.135416 0.533343 0.129137
v -0.131034 0.542155 0.129137
v -0.129188 0.542889 0.129898
v -0.128825 0.537749 0.133555
v -0.119446 0.543256 0.135764
v -0.127703 0.544358 0.126928
v -0.0318314 0.590202 0.0412727
v -0.0340436 0.590202 0.0394675
v -0.0202308 0.590202 0.0476838
v -0.016319 0.590202 0.0489846
v -0.0494346 0.590202 0.0168495
v -0.0444302 0.590202 0.0268577
v -0.0405453 0.590202 0.0326715
v -0.038441 0.590202 0.0350607
v -0.162939 0.544358 0.0740913
v -0.167358 0.544358 0.0608731
v -0.0088191 0.590202 -0.0505134
v -0.0371596 0.590202 -0.0379169
v -0.13433 0.543256 -0.121865
v -0.13433 0.541053 -0.126283
v -0.12553 0.541053 -0.135083
v -0.121112 0.543256 -0.135083
v -0.0239538 0.590202 -0.0467304
v -0.0814569 0.543256 -0.16152
v -0.0216876 0.590202 -0.048018
v -0.0176274 0.590202 -0.0491993
v -0.0206085 0.590202 -0.048456
v -0.0704478 0.544358 -0.163692
v -0.0572657 0.544358 -0.168111
v -0.0352112 0.544358 -0.172529
v -0.0594386 0.543256 -0.17032
v -0.0726569 0.543256 -0.165902
v -0.0704478 0.54142 -0.169595
v -0.0352112 0.542889 -0.175462
v -0.0043927 0.54142 -0.182777
v -0.00881086 0.536096 -0.184624
v -0.0704478 0.535546 -0.172529
v -0.0726569 0.53885 -0.17032
v -0.0733811 0.537014 -0.171044
v -0.0851508 0.529671 -0.165177
v -0.0851508 0.46363 -0.165177
v -0.0983691 0.459224 -0.156377
v -0.155624 0.43721 -0.094704
v -0.165148 0.43207 -0.08221
v -0.155624 0.4416 -0.0991221
v -0.164424 0.43721 -0.0859039
v -0.169567 0.427664 -0.0734099
v -0.173949 0.418852 -0.0558097
v -0.173949 0.423258 -0.0601916
v -0.176158 0.429867 -0.0580188
v -0.180576 0.416649 -0.0359642
v -0.182785 0.401227 -0.0161549
v -0.184994 0.40343 -0.00956391
v -0.184994 0.407837 -0.0139459
v -0.171776 0.434273 -0.0712008
v -0.168842 0.432804 -0.0771038
v -0.164424 0.529671 -0.0859039
v -0.165873 0.532608 -0.0829705
v -0.165148 0.536647 -0.08221
v -0.138748 0.536647 -0.121865
v -0.135054 0.537014 -0.127007
v -0.139472 0.532608 -0.122589
v -0.133606 0.534077 -0.129941
v -0.129188 0.534077 -0.134359
v -0.129188 0.459224 -0.134359
v -0.124769 0.529671 -0.138741
v -0.121836 0.532608 -0.140225
v -0.126254 0.537014 -0.135807
v -0.121112 0.536647 -0.139465
v -0.0814569 0.536647 -0.165902
v -0.0858751 0.541053 -0.16152
v -0.0822175 0.532608 -0.166626
v -0.124769 0.481221 -0.138741
v -0.111587 0.459224 -0.147541
v -0.137988 0.454818 -0.125522
v -0.137988 0.529671 -0.125522
v -0.137988 0.450412 -0.121141
v -0.183509 0.396087 0.000684762
v -0.0704478 0.460693 -0.172529
v -0.0550567 0.45849 -0.174702
v -0.0352112 0.465099 -0.181329
v -0.0572657 0.465099 -0.176911
v -0.0352112 0.53114 -0.181329
v -0.0572657 0.53114 -0.176911
v -0.0131928 0.53114 -0.185711
v -0.0131928 0.465099 -0.185711
v -0.0043927 0.535546 -0.185711
v 0.00658026 0.537749 -0.184624
v 0.00437118 0.535546 -0.185711
v 0.0153804 0.533343 -0.184624
v 0.00437118 0.54142 -0.182777
v 0.0153804 0.542155 -0.180206
v 0.0351896 0.542889 -0.175462
v 0.0572442 0.542889 -0.171044
v 0.0572442 0.544358 -0.168111
v 0.0131713 0.544358 -0.176911
v 0.014989 0.590202 -0.0501815
v 0.0704263 0.544358 -0.163692
v 0.0225969 0.590202 -0.0470358
v 0.0792626 0.544358 -0.15931
v 0.0748444 0.543256 -0.164272
v 0.0836445 0.543256 -0.159854
v 0.0924808 0.544358 -0.15051
v 0.0376237 0.590202 -0.0369877
v 0.123299 0.543256 -0.133417
v 0.125508 0.542155 -0.13396
v 0.132099 0.543256 -0.124617
v 0.132099 0.544358 -0.119656
v 0.158536 0.544358 -0.0800371
v 0.0471739 0.590202 -0.0225064
v 0.154118 0.548764 -0.0624007
v 0.167336 0.544358 -0.0624007
v 0.0490893 0.590202 -0.0180465
v 0.0528393 0.590202 -0.000751132
v 0.176136 0.544358 -0.018364
v 0.170269 0.542889 -0.0638855
v 0.161469 0.542889 -0.0814857
v 0.158536 0.543256 -0.0849623
v 0.160745 0.542155 -0.0855417
v 0.169545 0.542155 -0.0679053
v 0.170269 0.538483 -0.0726856
v 0.174688 0.538483 -0.0550492
v 0.17505 0.535546 -0.058562
v 0.171754 0.535546 -0.0712008
v 0.176136 0.535546 -0.0536006
v 0.184972 0.535546 -0.00956391
v 0.184972 0.53114 -0.0139459
v 0.184972 0.535546 0.00803628
v 0.183488 0.538483 -0.0110125
v 0.179069 0.542889 -0.0198488
v 0.182003 0.54142 -0.00807912
v 0.182003 0.54142 0.00948486
v 0.182763 0.537749 0.0146273
v 0.184972 0.53114 0.0168364
v 0.184972 0.399024 -0.000763817
v 0.184972 0.40343 -0.00956391
v 0.18385 0.401227 -0.011773
v 0.18385 0.396821 -0.00293667
v 0.184972 0.399024 0.0124182
v 0.18385 0.405634 -0.0161549
v 0.173203 0.54142 0.0535216
v 0.179069 0.542889 0.0153516
v 0.170269 0.542889 0.0594245
v 0.167336 0.544358 0.0608731
v 0.176136 0.544358 0.0168364
v 0.0489544 0.590202 0.0173672
v 0.046432 0.590202 0.0230482
v 0.00928319 0.590202 -0.0505134
v -0.0131928 0.544358 -0.176911
v -0.0154019 0.543256 -0.17912
v 0.0131713 0.542889 -0.179844
v 0.168821 0.535546 -0.0771038
v 0.16625 0.436476 -0.08221
v 0.133584 0.535546 -0.129941
v 0.169545 0.537749 -0.0745326
v 0.134308 0.542155 -0.12516
v 0.129166 0.535546 -0.134359
v 0.123299 0.535546 -0.138922
v 0.110081 0.535546 -0.147758
v 0.124748 0.53114 -0.138741
v 0.124748 0.478317 -0.138741
v 0.0851293 0.465099 -0.165177
v 0.129166 0.460693 -0.134359
v 0.133584 0.460693 -0.129941
v -0.165873 0.542889 0.0740913
v -0.137082 0.543256 0.118128
v 0.167336 0.394635 0.0740913
v 0.149736 0.394635 0.100528
v 0.140899 0.394635 0.113746
v 0.143109 0.39572 0.115919
v 0.143833 0.397556 0.116679
v 0.142384 0.400493 0.119613
f 2 3 1
f 2 4 3
f 2 5 4
f 2 1 5
f 6 5 1
f 7 5 6
f 7 8 5
f 7 9 8
f 10 9 7
f 10 11 9
f 10 7 11
f 7 12 11
f 7 13 12
f 7 6 13
f 13 6 14
f 13 14 15
f 16 13 15
f 16 12 13
f 16 17 12
f 16 18 17
f 16 19 18
f 16 15 19
f 15 20 19
f 15 14 20
f 21 20 14
f 22 20 21
f 23 20 22
f 23 24 20
f 25 24 23
f 25 26 24
f 25 27 26
f 25 28 27
f 25 23 28
f 28 23 29
f 28 29 30
f 28 30 27
f 27 30 31
f 27 31 26
f 26 31 32
f 24 26 32
f 24 32 20
f 20 32 19
f 32 33 19
f 34 33 32
f 35 33 34
f 36 33 35
f 36 37 33
f 36 38 37
f 36 35 38
f 38 35 39
f 38 39 40
f 41 38 40
f 42 38 41
f 42 37 38
f 43 37 42
f 44 37 43
f 44 45 37
f 44 46 45
f 44 43 46
f 43 47 46
f 48 47 43
f 48 49 47
f 48 42 49
f 48 43 42
f 49 42 50
f 51 49 50
f 51 52 49
f 51 53 52
f 51 54 53
f 51 55 54
f 51 50 55
f 55 50 56
f 55 56 57
f 55 57 58
f 54 55 58
f 59 54 58
f 59 53 54
f 60 53 59
f 60 61 53
f 60 62 61
f 60 59 62
f 59 63 62
f 59 64 63
f 59 65 64
f 59 57 65
f 59 58 57
f 66 65 57
f 67 65 66
f 68 65 67
f 69 65 68
f 69 64 65
f 69 70 64
f 69 71 70
f 69 68 71
f 68 72 71
f 68 73 72
f 68 67 73
f 67 74 73
f 67 66 74
f 66 75 74
f 66 76 75
f 77 76 66
f 77 40 76
f 77 41 40
f 77 78 41
f 77 50 78
f 56 50 77
f 56 77 57
f 77 66 57
f 42 78 50
f 42 41 78
f 79 76 40
f 79 80 76
f 79 81 80
f 82 81 79
f 82 40 81
f 82 79 40
f 83 81 40
f 83 84 81
f 83 85 84
f 86 85 83
f 86 87 85
f 86 39 87
f 86 40 39
f 86 83 40
f 87 39 35
f 88 87 35
f 88 89 87
f 88 90 89
f 88 34 90
f 88 35 34
f 90 34 31
f 90 31 91
f 89 90 91
f 89 91 30
f 89 30 92
f 89 92 84
f 89 84 87
f 85 87 84
f 93 84 92
f 93 81 84
f 94 81 93
f 94 95 81
f 94 96 95
f 94 93 96
f 93 97 96
f 93 92 97
f 92 30 97
f 98 97 30
f 98 99 97
f 100 99 98
f 100 101 99
f 100 102 101
f 100 103 102
f 100 98 103
f 98 30 103
f 104 103 30
f 102 103 104
f 102 104 29
f 105 102 29
f 105 106 102
f 105 107 106
f 105 22 107
f 105 29 22
f 23 22 29
f 107 22 108
f 109 107 108
f 109 110 107
f 109 108 110
f 110 108 111
f 110 111 107
f 112 107 111
f 112 106 107
f 112 113 106
f 112 114 113
f 112 115 114
f 112 116 115
f 112 111 116
f 111 117 116
f 111 118 117
f 111 108 118
f 108 119 118
f 108 3 119
f 108 120 3
f 108 22 120
f 22 21 120
f 21 14 120
f 1 120 14
f 1 3 120
f 6 1 14
f 119 3 121
f 119 121 122
f 119 122 123
f 119 123 118
f 123 117 118
f 123 124 117
f 123 125 124
f 123 126 125
f 123 122 126
f 127 126 122
f 127 128 126
f 127 129 128
f 130 129 127
f 130 131 129
f 130 132 131
f 130 133 132
f 130 134 133
f 130 127 134
f 134 127 135
f 134 135 136
f 134 136 137
f 133 134 137
f 133 137 138
f 133 138 132
f 139 132 138
f 139 140 132
f 139 138 140
f 140 138 141
f 142 140 141
f 143 140 142
f 143 132 140
f 143 144 132
f 143 145 144
f 143 142 145
f 142 146 145
f 142 141 146
f 147 146 141
f 147 148 146
f 149 148 147
f 149 150 148
f 149 151 150
f 149 152 151
f 149 153 152
f 149 147 153
f 153 147 154
f 152 153 154
f 152 154 155
f 152 155 151
f 156 151 155
f 156 157 151
f 158 157 156
f 158 159 157
f 160 159 158
f 160 161 159
f 160 162 161
f 160 163 162
f 160 158 163
f 158 164 163
f 158 156 164
f 156 155 164
f 155 165 164
f 155 154 165
f 166 165 154
f 167 165 166
f 168 165 167
f 168 169 165
f 168 170 169
f 168 171 170
f 168 172 171
f 173 172 168
f 173 174 172
f 173 175 174
f 173 167 175
f 173 168 167
f 175 167 166
f 175 166 176
f 175 176 177
f 175 177 178
f 175 178 174
f 178 179 174
f 178 180 179
f 181 180 178
f 182 180 181
f 182 183 180
f 182 184 183
f 182 154 184
f 182 176 154
f 182 181 176
f 176 181 177
f 181 178 177
f 176 166 154
f 184 154 185
f 184 185 186
f 184 186 187
f 184 187 188
f 184 188 183
f 188 189 183
f 190 189 188
f 190 191 189
f 190 192 191
f 190 193 192
f 194 193 190
f 194 195 193
f 194 196 195
f 194 197 196
f 194 190 197
f 190 198 197
f 190 188 198
f 188 199 198
f 188 187 199
f 187 186 199
f 186 200 199
f 201 200 186
f 201 202 200
f 203 202 201
f 203 185 202
f 203 201 185
f 201 186 185
f 204 202 185
f 204 205 202
f 204 206 205
f 204 207 206
f 204 185 207
f 207 185 208
f 207 208 209
f 210 207 209
f 210 206 207
f 210 211 206
f 210 212 211
f 210 213 212
f 210 214 213
f 210 215 214
f 210 209 215
f 209 216 215
f 209 217 216
f 209 141 217
f 209 208 141
f 218 141 208
f 147 141 218
f 147 218 154
f 218 208 154
f 185 154 208
f 141 219 217
f 9 219 141
f 11 219 9
f 220 219 11
f 17 219 220
f 17 45 219
f 17 18 45
f 45 18 33
f 221 45 33
f 221 37 45
f 221 33 37
f 18 19 33
f 46 219 45
f 46 47 219
f 47 52 219
f 47 49 52
f 52 222 219
f 62 222 52
f 63 222 62
f 63 223 222
f 63 64 223
f 70 223 64
f 70 224 223
f 70 71 224
f 71 72 224
f 72 225 224
f 226 225 72
f 226 227 225
f 228 227 226
f 228 229 227
f 228 226 229
f 229 226 230
f 229 230 231
f 232 229 231
f 232 233 229
f 232 234 233
f 235 234 232
f 235 236 234
f 237 236 235
f 237 238 236
f 237 239 238
f 237 232 239
f 237 235 232
f 232 231 239
f 239 231 240
f 239 240 241
f 239 241 242
f 243 239 242
f 244 239 243
f 244 238 239
f 245 238 244
f 245 246 238
f 245 247 246
f 245 243 247
f 245 244 243
f 243 248 247
f 243 242 248
f 242 249 248
f 242 241 249
f 250 249 241
f 250 251 249
f 252 251 250
f 253 251 252
f 253 254 251
f 253 255 254
f 253 256 255
f 257 256 253
f 257 258 256
f 257 252 258
f 257 253 252
f 259 258 252
f 259 260 258
f 259 261 260
f 262 261 259
f 262 250 261
f 262 252 250
f 262 259 252
f 261 250 241
f 261 241 230
f 261 230 263
f 261 263 260
f 263 72 260
f 263 226 72
f 263 230 226
f 264 260 72
f 264 256 260
f 264 73 256
f 264 72 73
f 256 73 255
f 265 255 73
f 265 74 255
f 265 73 74
f 255 74 75
f 266 255 75
f 266 254 255
f 266 267 254
f 266 268 267
f 266 75 268
f 75 269 268
f 75 76 269
f 270 269 76
f 271 269 270
f 271 268 269
f 271 272 268
f 271 80 272
f 271 273 80
f 271 76 273
f 271 270 76
f 273 76 80
f 274 272 80
f 274 275 272
f 274 95 275
f 274 80 95
f 95 80 81
f 95 96 275
f 276 275 96
f 276 277 275
f 276 278 277
f 276 96 278
f 96 97 278
f 279 278 97
f 279 99 278
f 279 97 99
f 99 101 278
f 278 101 280
f 281 278 280
f 277 278 281
f 282 277 281
f 283 277 282
f 283 275 277
f 283 282 275
f 282 281 275
f 281 284 275
f 281 280 284
f 285 284 280
f 285 251 284
f 285 249 251
f 285 280 249
f 248 249 280
f 248 280 247
f 247 280 246
f 246 280 286
f 287 246 286
f 288 246 287
f 288 238 246
f 288 289 238
f 288 290 289
f 288 291 290
f 288 287 291
f 292 291 287
f 292 293 291
f 292 294 293
f 292 287 294
f 294 287 286
f 295 294 286
f 296 294 295
f 296 297 294
f 296 298 297
f 296 295 298
f 298 295 299
f 298 299 300
f 301 298 300
f 301 297 298
f 301 293 297
f 301 302 293
f 301 300 302
f 302 300 303
f 302 303 304
f 305 302 304
f 306 302 305
f 306 307 302
f 306 308 307
f 306 309 308
f 211 309 306
f 211 310 309
f 211 311 310
f 211 212 311
f 212 312 311
f 313 312 212
f 313 314 312
f 313 315 314
f 313 316 315
f 313 212 316
f 212 213 316
f 317 316 213
f 318 316 317
f 318 319 316
f 318 320 319
f 318 321 320
f 318 317 321
f 317 216 321
f 214 216 317
f 214 215 216
f 214 317 213
f 321 216 224
f 322 321 224
f 322 323 321
f 322 224 323
f 323 224 225
f 323 225 227
f 319 323 227
f 320 323 319
f 320 321 323
f 319 227 324
f 319 324 316
f 325 316 324
f 325 315 316
f 325 326 315
f 325 233 326
f 325 324 233
f 227 233 324
f 229 233 227
f 234 326 233
f 234 327 326
f 328 327 234
f 328 329 327
f 328 236 329
f 328 234 236
f 329 236 289
f 330 329 289
f 330 331 329
f 330 332 331
f 330 289 332
f 290 332 289
f 333 332 290
f 333 334 332
f 333 335 334
f 333 336 335
f 337 336 333
f 337 290 336
f 337 333 290
f 290 338 336
f 290 339 338
f 290 340 339
f 290 291 340
f 340 291 293
f 340 293 302
f 340 302 307
f 340 307 308
f 340 308 339
f 339 308 341
f 339 341 336
f 339 336 338
f 336 341 309
f 336 309 335
f 335 309 311
f 342 335 311
f 342 334 335
f 342 343 334
f 342 311 343
f 343 311 344
f 343 344 334
f 332 334 344
f 332 344 345
f 332 345 331
f 331 345 326
f 331 326 327
f 329 331 327
f 314 326 345
f 314 315 326
f 314 345 344
f 314 344 346
f 314 346 312
f 346 311 312
f 346 344 311
f 310 311 309
f 341 308 309
f 238 289 236
f 347 224 216
f 347 223 224
f 347 217 223
f 347 216 217
f 222 223 217
f 222 217 219
f 211 306 348
f 211 348 206
f 349 206 348
f 349 205 206
f 349 348 205
f 348 350 205
f 351 350 348
f 351 352 350
f 353 352 351
f 353 306 352
f 353 351 306
f 306 351 348
f 306 305 352
f 354 352 305
f 354 355 352
f 354 356 355
f 354 305 356
f 356 305 304
f 357 356 304
f 357 358 356
f 357 359 358
f 357 198 359
f 197 198 357
f 197 357 196
f 196 357 360
f 196 360 361
f 196 361 195
f 195 361 362
f 195 362 363
f 195 363 193
f 363 364 193
f 363 362 364
f 365 364 362
f 366 364 365
f 366 367 364
f 368 367 366
f 369 367 368
f 369 370 367
f 369 371 370
f 369 372 371
f 369 368 372
f 372 368 373
f 372 373 374
f 372 374 371
f 374 375 371
f 374 376 375
f 374 373 376
f 377 376 373
f 377 378 376
f 377 373 378
f 379 378 373
f 379 380 378
f 379 381 380
f 379 382 381
f 379 373 382
f 382 373 383
f 381 382 383
f 381 383 384
f 381 384 385
f 381 385 378
f 381 378 380
f 386 378 385
f 387 378 386
f 387 376 378
f 387 388 376
f 387 386 388
f 386 385 388
f 389 388 385
f 389 390 388
f 389 385 390
f 391 390 385
f 392 390 391
f 392 393 390
f 392 162 393
f 392 394 162
f 392 391 394
f 395 394 391
f 395 162 394
f 395 396 162
f 395 397 396
f 395 398 397
f 395 391 398
f 399 398 391
f 399 400 398
f 399 384 400
f 399 385 384
f 399 391 385
f 400 384 401
f 400 401 397
f 400 397 398
f 397 401 402
f 397 402 125
f 397 125 126
f 397 126 403
f 397 403 396
f 396 403 128
f 404 396 128
f 161 396 404
f 161 162 396
f 405 161 404
f 405 406 161
f 405 404 406
f 407 406 404
f 407 148 406
f 407 146 148
f 407 145 146
f 407 404 145
f 408 145 404
f 144 145 408
f 144 408 131
f 144 131 132
f 408 129 131
f 408 128 129
f 408 404 128
f 150 406 148
f 157 406 150
f 409 406 157
f 409 161 406
f 409 157 161
f 159 161 157
f 157 150 151
f 128 403 126
f 410 125 402
f 410 124 125
f 410 401 124
f 410 402 401
f 411 124 401
f 412 124 411
f 412 413 124
f 412 414 413
f 412 411 414
f 411 401 414
f 384 414 401
f 384 383 414
f 414 383 413
f 415 413 383
f 116 413 415
f 116 124 413
f 116 117 124
f 116 415 416
f 116 416 115
f 115 416 114
f 416 383 114
f 415 383 416
f 383 373 114
f 373 286 114
f 417 286 373
f 365 286 417
f 418 286 365
f 295 286 418
f 295 418 299
f 419 299 418
f 419 300 299
f 419 303 300
f 419 304 303
f 360 304 419
f 357 304 360
f 360 419 420
f 361 360 420
f 361 420 362
f 365 362 420
f 419 365 420
f 419 418 365
f 366 365 417
f 366 417 373
f 368 366 373
f 280 114 286
f 101 114 280
f 113 114 101
f 113 101 106
f 102 106 101
f 163 393 162
f 163 421 393
f 422 421 163
f 422 169 421
f 422 165 169
f 422 164 165
f 422 163 164
f 421 169 170
f 421 170 423
f 421 423 388
f 424 421 388
f 424 393 421
f 424 390 393
f 424 388 390
f 388 423 425
f 388 425 376
f 375 376 425
f 375 425 426
f 427 375 426
f 427 428 375
f 427 429 428
f 427 426 429
f 429 426 430
f 429 430 180
f 429 180 189
f 428 429 189
f 191 428 189
f 191 192 428
f 428 192 375
f 192 371 375
f 192 193 371
f 370 371 193
f 370 193 367
f 367 193 364
f 189 180 431
f 183 189 431
f 183 431 180
f 430 179 180
f 432 179 430
f 432 172 179
f 432 433 172
f 432 426 433
f 432 430 426
f 433 426 423
f 433 423 171
f 172 433 171
f 423 170 171
f 423 426 425
f 172 174 179
f 359 198 199
f 359 199 200
f 359 200 358
f 358 200 355
f 356 358 355
f 202 355 200
f 202 205 355
f 205 350 355
f 352 355 350
f 297 293 294
f 434 284 251
f 267 284 434
f 267 275 284
f 267 435 275
f 267 268 435
f 272 435 268
f 272 275 435
f 267 434 254
f 434 251 254
f 260 256 258
f 240 230 241
f 240 231 230
f 61 62 52
f 61 52 53
f 17 220 11
f 17 11 12
f 138 9 141
f 436 9 138
f 437 9 436
f 438 9 437
f 438 8 9
f 438 439 8
f 438 437 439
f 439 437 137
f 439 137 440
f 439 440 4
f 8 439 4
f 8 4 5
f 4 440 441
f 4 441 3
f 441 121 3
f 441 136 121
f 441 440 136
f 137 136 440
f 135 121 136
f 135 122 121
f 135 127 122
f 437 436 137
f 137 436 138
f 104 30 29
f 91 31 30
f 31 34 32
o convex_1
v -0.0132238 0.724959 0.105836
v -0.016152 0.726416 0.105836
v 0.0132023 0.724959 0.105836
v -0.0132238 0.724959 0.470472
v -0.0255367 0.731107 0.105836
v -0.016152 0.726416 0.471969
v 0.0161305 0.726416 0.105836
v 0.0132023 0.724959 0.470472
v -0.00881603 0.724959 0.479308
v -0.0132238 0.729356 0.505717
v -0.0176213 0.729356 0.496881
v -0.0220291 0.729356 0.479308
v -0.0278958 0.732296 0.105836
v -0.0249677 0.730826 0.480756
v -0.0278958 0.732296 0.47781
v 0.0226077 0.72965 0.105836
v 0.0161305 0.726416 0.470472
v 0.0242115 0.730452 0.481505
v 0.0198037 0.730452 0.499127
v 0.0175998 0.729356 0.496881
v 0.0132023 0.729356 0.505717
v 0.00879451 0.724959 0.479308
v -1.076e-05 0.724959 0.492488
v -0.0205598 0.730826 0.498379
v -1.076e-05 0.729356 0.518947
v -0.00440822 0.730452 0.519496
v -0.0132238 0.730452 0.51066
v -0.0176213 0.733766 0.518947
v -0.0205598 0.735223 0.520395
v -0.0249677 0.735223 0.511608
v -0.0381807 0.739633 0.105836
v -0.0367115 0.741104 0.499826
v -0.0381807 0.739633 0.476363
v 0.0255359 0.73112 0.105836
v 0.0278743 0.732296 0.479308
v 0.0322821 0.736693 0.492488
v 0.028609 0.734862 0.494684
v 0.0242115 0.734862 0.512307
v 0.0278743 0.732296 0.105836
v 0.0198037 0.734862 0.521143
v 0.0153959 0.730452 0.507914
v 0.0021828 0.730452 0.521143
v -1.076e-05 0.745501 0.551247
v -0.0220291 0.74367 0.537119
v -0.0132238 0.734862 0.523889
v -0.00440822 0.74367 0.545905
v -0.0132238 0.752477 0.559135
v -0.0220291 0.739273 0.528282
v -0.024233 0.740368 0.528831
v -0.024233 0.735958 0.515602
v -0.0374461 0.744765 0.515602
v -0.0381807 0.744044 0.511608
v -0.0455167 0.749911 0.105836
v -0.0411089 0.745501 0.499826
v -0.0455167 0.749911 0.49104
v 0.0381592 0.739633 0.474865
v 0.0366899 0.741104 0.501324
v 0.0278743 0.736693 0.51011
v 0.0264154 0.736519 0.514504
v 0.0381592 0.739633 0.105836
v 0.0220076 0.736519 0.52334
v 0.0198037 0.74367 0.538766
v 0.0021828 0.74367 0.547552
v 0.0043867 0.749724 0.558585
v -1.076e-05 0.749911 0.560033
v -0.0220291 0.752477 0.554691
v -0.024233 0.744765 0.537668
v -0.00440822 0.74808 0.554691
v -0.00881603 0.754308 0.564426
v -0.0176213 0.754308 0.560033
v -0.0330383 0.744765 0.524438
v -0.0374461 0.749176 0.524438
v -0.0374461 0.757983 0.542061
v -0.0462514 0.771201 0.537668
v -0.046986 0.770466 0.533624
v -0.046986 0.761659 0.516001
v -0.046986 0.757248 0.507165
v -0.046986 0.752851 0.493985
v -0.0484553 0.755778 0.105836
v -0.0484553 0.755778 0.492488
v 0.0454952 0.749911 0.492488
v 0.0410874 0.745501 0.501324
v 0.0374246 0.74367 0.512307
v 0.0352207 0.740916 0.505717
v 0.0308129 0.740916 0.518947
v 0.0454952 0.749911 0.105836
v 0.0242115 0.745875 0.538766
v 0.0220076 0.745327 0.540963
v 0.0220076 0.749724 0.549749
v 0.0109984 0.752477 0.560782
v 0.0021828 0.74808 0.556339
v 0.00879451 0.754308 0.564426
v 0.00879451 0.763129 0.573263
v -0.00881603 0.763129 0.573263
v -0.024233 0.753586 0.555241
v -0.0330383 0.757983 0.550847
v -0.0176213 0.767526 0.573263
v -0.024233 0.757983 0.559684
v -0.0374461 0.762394 0.550847
v -0.0462514 0.775598 0.546454
v -0.046986 0.774863 0.54241
v -0.0484553 0.777803 0.540963
v -0.0484553 0.760189 0.505717
v -0.0513938 0.774863 0.105836
v -0.0528631 0.777803 0.488095
v 0.0484338 0.755778 0.492488
v 0.0473266 0.75523 0.496881
v 0.0473266 0.764038 0.518947
v 0.0454952 0.758718 0.514504
v 0.0472646 0.753439 0.105836
v 0.0385214 0.746423 0.514504
v 0.0366899 0.745501 0.518947
v 0.0330168 0.74367 0.521143
v 0.0330168 0.752477 0.538766
v 0.0242115 0.750272 0.547552
v 0.0242115 0.754682 0.556339
v 0.0198037 0.752477 0.556339
v 0.0175998 0.754308 0.560033
v 0.0175998 0.767526 0.573263
v 0.00879451 0.780744 0.590885
v -0.00881603 0.780744 0.590885
v -0.0330383 0.766791 0.559684
v -0.0176213 0.785141 0.590885
v -0.024233 0.775598 0.577306
v -0.0374461 0.771201 0.559684
v -0.0473482 0.777803 0.545905
v -0.0462514 0.788816 0.559684
v -0.0473482 0.795405 0.563528
v -0.0484553 0.795405 0.558585
v -0.0528631 0.804212 0.540963
v -0.0528631 0.795405 0.52334
v -0.0513938 0.776333 0.105836
v -0.0528631 0.843852 0.567372
v 0.0528416 0.777803 0.488095
v 0.0484338 0.764586 0.514504
v 0.0484338 0.755778 0.105836
v 0.0484338 0.768996 0.52334
v 0.0484338 0.777803 0.540963
v 0.0473266 0.777255 0.545356
v 0.0429292 0.764038 0.53652
v 0.0410874 0.758718 0.532126
v 0.0366899 0.758718 0.545356
v 0.0330168 0.759079 0.551946
v 0.0242115 0.759079 0.560782
v 0.0175998 0.785141 0.590885
v 0.0132023 0.789551 0.595279
v -1.076e-05 0.785141 0.595279
v -0.00440822 0.786611 0.595428
v -0.0176213 0.791021 0.595428
v -0.0330383 0.784406 0.577306
v -0.0198252 0.788816 0.592683
v -0.024233 0.788816 0.590486
v -0.024233 0.784406 0.586093
v -0.0374461 0.793213 0.5817
v -0.0374461 0.788816 0.577306
v -0.0418436 0.79761 0.577306
v -0.0462514 0.79761 0.56847
v -0.0473482 0.799815 0.567921
v -0.0484553 0.804212 0.567372
v -0.0528631 0.808623 0.545356
v -0.0484553 0.791021 0.105836
v -0.0484553 0.81743 0.576158
v -0.0484553 0.826238 0.580601
v -0.0484553 0.835045 0.584994
v -0.051756 0.846058 0.569568
v -0.0513938 0.846793 0.567372
v 0.0528416 0.843852 0.567372
v 0.0528416 0.795405 0.52334
v 0.0513723 0.774863 0.105836
v 0.0513723 0.776333 0.105836
v 0.0528416 0.804212 0.540963
v 0.0484338 0.795405 0.558585
v 0.0462299 0.776707 0.547552
v 0.0385214 0.764038 0.549749
v 0.0473266 0.794857 0.562979
v 0.0462299 0.789912 0.560782
v 0.0374246 0.76349 0.551946
v 0.0374246 0.772297 0.560782
v 0.0374246 0.789912 0.578405
v 0.0242115 0.776707 0.578405
v 0.0242115 0.781104 0.582798
v 0.0242115 0.789912 0.591584
v 0.0175998 0.794857 0.597126
v 0.0043867 0.802756 0.604065
v 0.0043867 0.805682 0.605563
v -0.00220432 0.788816 0.597126
v -0.0154174 0.793213 0.597126
v -0.0220291 0.795405 0.595428
v -0.0176213 0.799815 0.599871
v -0.0286305 0.810828 0.599322
v -0.0330383 0.793213 0.586093
v -0.0367115 0.799815 0.586442
v -0.0429507 0.799815 0.576757
v -0.0411089 0.804212 0.582049
v -0.0473482 0.81302 0.576757
v -0.0425782 0.802756 0.105836
v -0.0473482 0.830648 0.585544
v -0.0455167 0.835045 0.590885
v -0.0473482 0.83725 0.587191
v -0.0455167 0.845323 0.580601
v -0.0490037 0.847154 0.571765
v -0.0451546 0.850468 0.569568
v -0.0473482 0.850468 0.565175
v -0.0473482 0.841661 0.582798
v -0.0451546 0.841661 0.587191
v -0.046986 0.851203 0.562979
v -0.046986 0.851203 0.549749
v -0.0411089 0.805682 0.105836
v 0.0513723 0.846793 0.565924
v 0.049903 0.845323 0.573263
v 0.0462299 0.841661 0.587191
v 0.0484338 0.835045 0.584994
v 0.0484338 0.826238 0.580601
v 0.0484338 0.81743 0.576158
v 0.0528416 0.821841 0.554142
v 0.0484338 0.791021 0.105836
v 0.0528416 0.808623 0.545356
v 0.0484338 0.804212 0.567372
v 0.0473266 0.799267 0.567372
v 0.0462299 0.798706 0.569568
v 0.041822 0.798706 0.578405
v 0.0374246 0.794309 0.582798
v 0.0198037 0.794309 0.595977
v 0.0330168 0.794309 0.587191
v 0.028609 0.811924 0.600421
v 0.0198037 0.803116 0.600421
v 0.0175998 0.821279 0.610305
v 0.00879451 0.808075 0.605912
v 0.0043867 0.826238 0.615847
v -0.00440822 0.826238 0.615847
v -0.00440822 0.805682 0.605563
v -0.00661213 0.806417 0.605912
v -0.00881603 0.804212 0.604265
v -0.0220291 0.804212 0.599871
v -0.0264369 0.81743 0.604265
v -0.0176213 0.826238 0.613051
v -0.0286305 0.815225 0.601519
v -0.0323037 0.81743 0.599672
v -0.0367115 0.808623 0.590885
v -0.0385429 0.83284 0.600421
v -0.0455167 0.81743 0.582049
v -0.036339 0.83725 0.600421
v -0.0429507 0.846058 0.582798
v -0.0445959 0.851564 0.567372
v -0.0411089 0.846793 0.583547
v -0.036339 0.841661 0.595977
v -0.0440475 0.85266 0.562979
v -0.0418436 0.855974 0.547552
v -0.0278958 0.8189 0.105836
v -0.0367115 0.810093 0.105836
v 0.0491684 0.848998 0.568121
v 0.0479888 0.791917 0.105836
v 0.0425567 0.802756 0.105836
v 0.0413771 0.805108 0.105836
v 0.0410874 0.805682 0.105836
v 0.0469645 0.851203 0.548301
v 0.0374246 0.841661 0.595977
v 0.0374246 0.83725 0.600421
v 0.0454952 0.836515 0.590885
v 0.0462299 0.846058 0.578405
v 0.0469645 0.833575 0.58794
v 0.0469645 0.824767 0.583547
v 0.0469645 0.81596 0.579104
v 0.0473266 0.812472 0.576158
v 0.0462299 0.811924 0.578405
v 0.0374246 0.829539 0.600421
v 0.028609 0.820731 0.604814
v 0.0198037 0.820731 0.609207
v 0.0153959 0.827333 0.6136
v 0.00879451 0.82569 0.614699
v 0.0132023 0.827708 0.614349
v 0.0124677 0.829913 0.615098
v 0.00879451 0.830648 0.615847
v -0.00881603 0.830648 0.615847
v -0.0154174 0.828443 0.614699
v -0.00661213 0.824032 0.614699
v -0.00881603 0.81302 0.608658
v -0.0220291 0.81302 0.604265
v -0.0264369 0.826238 0.608658
v -0.0286305 0.824032 0.605912
v -0.0323037 0.826238 0.604065
v -0.0367115 0.826238 0.599672
v -0.0374461 0.83284 0.601519
v -0.0352422 0.835045 0.602617
v -0.0330383 0.83284 0.605912
v -0.0275337 0.83725 0.604814
v -0.0396397 0.848263 0.580601
v -0.0359768 0.856335 0.553443
v -0.0323037 0.842382 0.596726
v -0.0234984 0.837985 0.605563
v -0.0293651 0.840926 0.599672
v -0.0352422 0.85707 0.549749
v -0.0220291 0.861481 0.53652
v -0.0220291 0.861481 0.527733
v -0.0220291 0.821841 0.105836
v -0.0249677 0.82037 0.105836
v 0.0462299 0.850468 0.569568
v 0.0469645 0.851203 0.561481
v 0.0366899 0.810093 0.105836
v 0.0381592 0.8556 0.535072
v 0.0264154 0.861481 0.53652
v 0.0278743 0.8189 0.105836
v 0.0175998 0.839455 0.60701
v 0.0242115 0.83725 0.609207
v 0.041822 0.846058 0.582798
v 0.034486 0.843117 0.593082
v 0.0330168 0.83284 0.604814
v 0.0462299 0.829539 0.587191
v 0.0330168 0.829539 0.604814
v 0.0242115 0.825142 0.609207
v 0.0249461 0.829178 0.609956
v 0.0220076 0.830648 0.611404
v 0.0153959 0.83284 0.6136
v 0.0102638 0.836515 0.612901
v -0.0137722 0.830648 0.614699
v -0.00734676 0.836515 0.612901
v -0.0102853 0.833575 0.614349
v -0.0234984 0.833575 0.609956
v -0.0220291 0.830648 0.611404
v -0.0249677 0.830648 0.609956
v -0.024233 0.828443 0.610305
v -0.0205598 0.836515 0.608458
v -0.0308344 0.843852 0.593781
v 0.0043867 0.839455 0.60701
v 0.0346723 0.855974 0.554142
v -0.0102853 0.837985 0.609956
v -0.00881603 0.861481 0.52334
v -0.00881603 0.826238 0.105836
v 0.0388939 0.847528 0.579852
v 0.044026 0.85266 0.562979
v 0.0432913 0.851925 0.566623
v 0.0293436 0.860011 0.535072
v 0.0249461 0.82037 0.105836
v 0.0220076 0.861481 0.527733
v 0.0220076 0.821841 0.105836
v 0.00879451 0.826238 0.105836
v 0.0161305 0.837985 0.609956
v 0.0278743 0.832118 0.608458
v -0.0143206 0.83284 0.6136
v 0.00879451 0.861481 0.52334
f 442 443 446
f 442 446 454
f 442 454 472
f 442 472 494
f 442 494 520
f 442 520 545
f 442 545 573
f 442 573 602
f 442 602 637
f 442 637 649
f 442 649 691
f 442 691 690
f 442 690 737
f 442 737 736
f 442 736 769
f 442 769 777
f 442 777 776
f 442 776 774
f 442 774 743
f 442 743 740
f 442 740 696
f 442 696 695
f 442 695 694
f 442 694 693
f 442 693 657
f 442 657 611
f 442 611 610
f 442 610 577
f 442 577 551
f 442 551 527
f 442 527 501
f 442 501 480
f 442 480 475
f 442 475 457
f 442 457 448
f 442 448 444
f 442 444 449
f 442 449 463
f 442 463 464
f 442 464 450
f 442 450 445
f 442 445 447
f 442 447 443
f 443 447 446
f 444 448 458
f 444 458 449
f 445 450 451
f 445 451 452
f 445 452 453
f 445 453 447
f 446 447 453
f 446 453 455
f 446 455 456
f 446 456 454
f 448 457 458
f 449 458 459
f 449 459 460
f 449 460 461
f 449 461 462
f 449 462 463
f 450 464 451
f 451 465 452
f 451 464 466
f 451 466 467
f 451 467 468
f 451 468 469
f 451 469 470
f 451 470 471
f 451 471 465
f 452 465 453
f 453 465 455
f 454 456 474
f 454 474 472
f 455 465 471
f 455 471 473
f 455 473 456
f 456 473 474
f 457 475 459
f 457 459 458
f 459 476 477
f 459 477 478
f 459 478 479
f 459 479 460
f 459 475 480
f 459 480 476
f 460 462 461
f 460 479 481
f 460 481 482
f 460 482 462
f 462 464 463
f 462 482 483
f 462 483 466
f 462 466 464
f 466 483 484
f 466 484 467
f 467 485 486
f 467 486 470
f 467 470 469
f 467 469 468
f 467 484 487
f 467 487 488
f 467 488 485
f 470 486 489
f 470 489 490
f 470 490 491
f 470 491 471
f 471 491 492
f 471 492 493
f 471 493 473
f 472 474 496
f 472 496 494
f 473 493 474
f 474 493 495
f 474 495 496
f 476 497 477
f 476 480 501
f 476 501 497
f 477 497 498
f 477 498 499
f 477 499 479
f 477 479 478
f 479 499 500
f 479 500 502
f 479 502 481
f 481 483 482
f 481 502 529
f 481 529 503
f 481 503 483
f 483 504 484
f 483 503 505
f 483 505 504
f 484 504 532
f 484 532 506
f 484 506 509
f 484 509 487
f 485 507 508
f 485 508 490
f 485 490 489
f 485 489 486
f 485 488 507
f 487 509 488
f 488 506 510
f 488 510 511
f 488 511 507
f 488 509 506
f 490 512 491
f 490 508 512
f 491 512 492
f 492 512 513
f 492 513 493
f 493 513 514
f 493 514 515
f 493 515 516
f 493 516 517
f 493 517 518
f 493 518 519
f 493 519 496
f 493 496 495
f 494 496 521
f 494 521 520
f 496 519 521
f 497 522 523
f 497 523 498
f 497 501 527
f 497 527 522
f 498 523 524
f 498 524 525
f 498 525 499
f 499 524 500
f 499 525 524
f 500 524 526
f 500 526 502
f 502 526 528
f 502 528 529
f 503 529 530
f 503 530 531
f 503 531 505
f 504 505 532
f 505 531 533
f 505 533 506
f 505 506 532
f 506 533 534
f 506 534 535
f 506 535 510
f 507 536 508
f 507 511 536
f 508 536 537
f 508 537 512
f 510 535 511
f 511 535 538
f 511 538 539
f 511 539 536
f 512 537 514
f 512 514 513
f 514 537 540
f 514 540 541
f 514 541 515
f 515 541 542
f 515 542 516
f 516 542 543
f 516 543 544
f 516 544 517
f 517 544 518
f 518 544 519
f 519 544 521
f 520 521 546
f 520 546 545
f 521 544 546
f 522 547 548
f 522 548 549
f 522 549 550
f 522 550 523
f 522 527 551
f 522 551 547
f 523 550 552
f 523 552 524
f 524 552 553
f 524 553 526
f 526 553 554
f 526 554 555
f 526 555 528
f 528 555 556
f 528 556 530
f 528 530 529
f 530 556 557
f 530 557 558
f 530 558 531
f 531 558 559
f 531 559 533
f 533 559 534
f 534 559 560
f 534 560 586
f 534 586 561
f 534 561 562
f 534 562 535
f 535 562 564
f 535 564 538
f 536 539 537
f 537 539 563
f 537 563 566
f 537 566 540
f 538 564 565
f 538 565 539
f 539 565 591
f 539 591 563
f 540 566 541
f 541 567 542
f 541 566 568
f 541 568 569
f 541 569 567
f 542 567 543
f 543 567 569
f 543 569 570
f 543 570 571
f 543 571 572
f 543 572 544
f 544 572 546
f 545 546 573
f 546 572 571
f 546 571 601
f 546 601 574
f 546 574 573
f 547 575 576
f 547 576 549
f 547 549 548
f 547 551 577
f 547 577 575
f 549 576 578
f 549 578 579
f 549 579 580
f 549 580 581
f 549 581 582
f 549 582 550
f 550 582 552
f 552 582 553
f 553 582 583
f 553 583 555
f 553 555 554
f 555 583 584
f 555 584 556
f 556 584 557
f 557 585 559
f 557 559 558
f 557 584 585
f 559 585 560
f 560 585 586
f 561 586 587
f 561 587 588
f 561 588 562
f 562 588 589
f 562 589 590
f 562 590 564
f 563 591 596
f 563 596 566
f 564 590 592
f 564 592 593
f 564 593 594
f 564 594 565
f 565 594 595
f 565 595 591
f 566 596 597
f 566 597 568
f 568 597 598
f 568 598 569
f 569 598 599
f 569 599 600
f 569 600 570
f 570 600 571
f 571 600 601
f 573 574 602
f 574 601 603
f 574 603 604
f 574 604 605
f 574 605 640
f 574 640 606
f 574 606 607
f 574 607 602
f 575 608 656
f 575 656 658
f 575 658 612
f 575 612 609
f 575 609 578
f 575 578 576
f 575 577 610
f 575 610 611
f 575 611 608
f 578 609 612
f 578 612 579
f 579 612 613
f 579 613 616
f 579 616 580
f 580 614 618
f 580 618 615
f 580 615 581
f 580 616 617
f 580 617 614
f 581 615 583
f 581 583 582
f 583 615 618
f 583 618 584
f 584 618 619
f 584 619 585
f 585 619 620
f 585 620 621
f 585 621 586
f 586 622 623
f 586 623 624
f 586 624 587
f 586 621 622
f 587 624 625
f 587 625 588
f 588 625 626
f 588 626 627
f 588 627 589
f 589 627 628
f 589 628 590
f 590 629 593
f 590 593 592
f 590 628 630
f 590 630 629
f 591 595 596
f 593 629 631
f 593 631 632
f 593 632 594
f 594 632 595
f 595 632 633
f 595 633 635
f 595 635 597
f 595 597 596
f 597 634 598
f 597 635 634
f 598 634 599
f 599 634 636
f 599 636 600
f 600 636 603
f 600 603 601
f 602 607 637
f 603 636 604
f 604 636 605
f 605 638 639
f 605 639 640
f 605 636 638
f 606 641 642
f 606 642 643
f 606 643 644
f 606 644 647
f 606 647 607
f 606 640 645
f 606 645 646
f 606 646 641
f 607 647 648
f 607 648 649
f 607 649 637
f 608 650 651
f 608 651 652
f 608 652 653
f 608 653 654
f 608 654 655
f 608 655 656
f 608 611 657
f 608 657 650
f 612 658 659
f 612 659 613
f 613 659 616
f 614 617 619
f 614 619 618
f 616 659 660
f 616 660 661
f 616 661 617
f 617 661 662
f 617 662 619
f 619 662 620
f 620 662 663
f 620 663 622
f 620 622 621
f 622 663 623
f 623 664 624
f 623 663 665
f 623 665 666
f 623 666 667
f 623 667 664
f 624 667 709
f 624 709 668
f 624 668 711
f 624 711 669
f 624 669 625
f 624 664 667
f 625 669 626
f 626 669 670
f 626 670 627
f 627 670 671
f 627 671 672
f 627 672 673
f 627 673 628
f 628 673 674
f 628 674 630
f 629 630 675
f 629 675 676
f 629 676 631
f 630 674 718
f 630 718 677
f 630 677 719
f 630 719 675
f 631 676 678
f 631 678 679
f 631 679 633
f 631 633 632
f 633 679 680
f 633 680 681
f 633 681 635
f 634 635 682
f 634 682 636
f 635 681 682
f 636 682 639
f 636 639 638
f 639 646 640
f 639 682 681
f 639 681 683
f 639 683 646
f 640 646 645
f 641 646 684
f 641 684 642
f 642 684 643
f 643 685 644
f 643 684 686
f 643 686 685
f 644 685 647
f 646 686 684
f 646 683 687
f 646 687 686
f 647 685 688
f 647 688 689
f 647 689 648
f 648 689 690
f 648 690 691
f 648 691 649
f 650 692 651
f 650 657 693
f 650 693 694
f 650 694 695
f 650 695 696
f 650 696 697
f 650 697 739
f 650 739 692
f 651 692 652
f 652 698 699
f 652 699 700
f 652 700 653
f 652 692 701
f 652 701 698
f 653 700 702
f 653 702 703
f 653 703 654
f 654 703 704
f 654 704 655
f 655 704 705
f 655 705 659
f 655 659 658
f 655 658 656
f 659 705 660
f 660 705 706
f 660 706 661
f 661 706 662
f 662 706 707
f 662 707 663
f 663 707 666
f 663 666 665
f 666 707 750
f 666 750 708
f 666 708 709
f 666 709 667
f 668 709 751
f 668 751 710
f 668 710 711
f 669 711 670
f 670 711 712
f 670 712 713
f 670 713 714
f 670 714 715
f 670 715 671
f 671 715 716
f 671 716 717
f 671 717 673
f 671 673 672
f 673 717 718
f 673 718 674
f 675 719 720
f 675 720 676
f 676 720 721
f 676 721 678
f 677 718 717
f 677 717 716
f 677 716 762
f 677 762 720
f 677 720 719
f 678 721 722
f 678 722 679
f 679 722 723
f 679 723 680
f 680 723 681
f 681 723 724
f 681 724 683
f 683 724 725
f 683 725 726
f 683 726 727
f 683 727 687
f 685 686 728
f 685 728 729
f 685 729 688
f 686 687 730
f 686 730 764
f 686 764 728
f 687 727 731
f 687 731 732
f 687 732 730
f 688 729 689
f 689 729 733
f 689 733 734
f 689 734 735
f 689 735 736
f 689 736 737
f 689 737 690
f 692 738 701
f 692 739 738
f 696 740 697
f 697 741 742
f 697 742 739
f 697 740 743
f 697 743 741
f 698 744 745
f 698 745 699
f 698 701 746
f 698 746 747
f 698 747 744
f 699 745 748
f 699 748 750
f 699 750 707
f 699 707 700
f 700 707 702
f 701 738 746
f 702 749 706
f 702 706 703
f 702 707 749
f 703 706 704
f 704 706 705
f 706 749 707
f 708 750 751
f 708 751 709
f 710 752 753
f 710 753 713
f 710 713 712
f 710 712 711
f 710 751 752
f 713 754 714
f 713 753 754
f 714 754 755
f 714 755 757
f 714 757 715
f 715 756 716
f 715 757 758
f 715 758 756
f 716 756 759
f 716 759 760
f 716 760 761
f 716 761 762
f 720 726 722
f 720 722 721
f 720 762 726
f 722 726 724
f 722 724 723
f 724 726 725
f 726 762 761
f 726 761 760
f 726 760 759
f 726 759 727
f 727 759 763
f 727 763 731
f 728 734 729
f 728 764 765
f 728 765 744
f 728 744 766
f 728 766 742
f 728 742 734
f 729 734 733
f 730 732 767
f 730 767 764
f 731 763 757
f 731 757 767
f 731 767 732
f 734 742 775
f 734 775 781
f 734 781 768
f 734 768 735
f 735 768 769
f 735 769 736
f 738 770 747
f 738 747 746
f 738 739 771
f 738 771 772
f 738 772 770
f 739 742 771
f 741 773 742
f 741 743 774
f 741 774 776
f 741 776 773
f 742 766 772
f 742 772 771
f 742 773 776
f 742 776 777
f 742 777 775
f 744 765 767
f 744 767 757
f 744 757 755
f 744 755 778
f 744 778 745
f 744 747 770
f 744 770 772
f 744 772 766
f 745 778 755
f 745 755 754
f 745 754 753
f 745 753 779
f 745 779 748
f 748 779 750
f 750 779 752
f 750 752 751
f 752 779 753
f 756 758 780
f 756 780 759
f 757 763 759
f 757 759 758
f 758 759 780
f 764 767 765
f 768 781 777
f 768 777 769
f 775 777 781
o convex_2
v 0.00879451 0.826246 0.105836
v 0.00879451 0.826246 0.100526
v -0.00881603 0.826246 0.105836
v 0.0220076 0.821833 0.105836
v 0.0043867 0.826246 0.0961178
v 0.0220076 0.821833 0.100526
v 0.0175998 0.821833 0.0873176
v 0.0132023 0.821833 0.0785021
v -0.00881603 0.826246 0.100526
v -0.0220291 0.821833 0.105836
v 0.0278743 0.818898 0.105836
v -1.076e-05 0.826246 0.0917254
v -1.076e-05 0.821833 0.0652941
v 0.0278743 0.818898 0.101995
v 0.0249461 0.820354 0.0990564
v 0.0205383 0.815964 0.0550246
v 0.0175998 0.81742 0.0564786
v -0.0176213 0.821833 0.0873176
v -0.0220291 0.821833 0.100526
v -0.00440822 0.826246 0.0961178
v -0.0132238 0.821833 0.0785021
v -0.0273061 0.819199 0.105836
v 0.0366899 0.810095 0.105836
v 0.00879451 0.81742 0.0520861
v -0.00881603 0.81742 0.0520861
v -0.0176213 0.81742 0.0564786
v 0.0249461 0.815964 0.0726404
v 0.0366899 0.810095 0.0843791
v 0.0132023 0.816334 0.0515351
v 0.0322821 0.810095 0.0667633
v 0.0366899 0.805682 0.0579478
v 0.0337514 0.807138 0.0550246
v 0.0330168 0.806422 0.0509842
v 0.0205383 0.802748 0.0285933
v -0.0198252 0.816334 0.05429
v -0.0198252 0.820724 0.0851137
v -0.024233 0.820724 0.0983217
v -0.0278958 0.818898 0.100526
v -0.0278958 0.818898 0.105836
v 0.0410874 0.805682 0.105836
v 0.00879451 0.815964 0.0491476
v -0.0110199 0.816334 0.0498822
v 0.0410874 0.805682 0.0843791
v 0.0132023 0.803118 0.0251192
v 0.00879451 0.810095 0.0373935
v 0.0381592 0.802748 0.0550246
v 0.0374246 0.802009 0.0509842
v 0.0454952 0.796879 0.0755636
v 0.0205383 0.798335 0.0197931
v 0.0374246 0.793206 0.0333684
v 0.0374246 0.788792 0.0245682
v 0.028609 0.793206 0.0201604
v -0.0234984 0.814485 0.0564786
v -0.0264369 0.819083 0.0961178
v -0.0198252 0.803118 0.0278587
v -0.0330383 0.805313 0.0498822
v -0.0330383 0.807508 0.05429
v -0.0367115 0.805682 0.0564786
v -0.0323037 0.810095 0.0652941
v -0.0367115 0.810095 0.0829099
v -0.0367115 0.810095 0.105836
v 0.043581 0.800715 0.105836
v -0.0110199 0.811921 0.0410667
v -0.0132238 0.805867 0.0300626
v -0.00881603 0.810095 0.0373935
v 0.0198037 0.797595 0.0179565
v 0.0175998 0.796879 0.0154006
v 0.00879451 0.801269 0.0197931
v 0.00879451 0.802748 0.0227316
v 0.0043867 0.796879 0.0109929
v 0.0469645 0.793945 0.0726404
v 0.0469645 0.780729 0.0418013
v 0.0381592 0.793945 0.0373935
v 0.0242115 0.793206 0.0157526
v 0.0198037 0.793206 0.0113602
v 0.0374246 0.784402 0.0201604
v 0.0330168 0.784402 0.0113602
v 0.0381592 0.789532 0.0285933
v 0.0462299 0.775576 0.0289606
v -0.0198252 0.798705 0.0190585
v -0.0286305 0.789901 0.014666
v -0.0323037 0.788053 0.0168546
v -0.0374461 0.792096 0.0322665
v -0.0385429 0.795955 0.0432706
v -0.0385429 0.800368 0.0520861
v -0.0473482 0.782739 0.0476783
v -0.0455167 0.788053 0.0520861
v -0.0455167 0.796879 0.0741096
v -0.0411089 0.805682 0.0829099
v -0.0385429 0.791542 0.0344704
v -0.0411089 0.805682 0.105836
v 0.0484338 0.791011 0.105836
v 0.0484338 0.791011 0.0741096
v -0.0110199 0.807508 0.0322665
v -0.00440822 0.796879 0.0109929
v -0.00881603 0.805682 0.0285933
v 0.0132023 0.792466 0.0065851
v 0.00879451 0.783663 -0.00223043
v 0.0484338 0.777794 0.0432706
v 0.0469645 0.776316 0.0330011
v 0.0198037 0.788792 0.00695242
v 0.0462299 0.771186 0.0245682
v 0.0462299 0.749167 0.00254467
v 0.0374246 0.75797 -0.00625557
v 0.0341136 0.768968 -0.00131215
v 0.0242115 0.75797 -0.0194789
v 0.0374246 0.753557 -0.0106633
v 0.0473266 0.773381 0.0295116
v -0.00661213 0.798705 0.014666
v -0.00881603 0.797064 0.0124621
v -0.0154174 0.794291 0.0102583
v -0.0198252 0.792096 0.0102583
v -0.0330383 0.783293 0.0102583
v -0.0374461 0.783293 0.0190585
v -0.0462514 0.77449 0.0278587
v -0.0473482 0.773936 0.0300626
v -0.0484553 0.777794 0.0432706
v -0.0484553 0.782184 0.0520861
v -0.0484553 0.791011 0.0741096
v -0.0473482 0.791542 0.0697019
v -0.0422781 0.803349 0.105836
v 0.0513723 0.776316 0.105836
v 0.0513723 0.776316 0.0682326
v 0.0517344 0.773381 0.0647431
v -0.00881603 0.783663 -0.00223043
v -0.0132238 0.792466 0.0065851
v 0.00879451 0.766034 -0.0198462
v 0.00879451 0.77486 -0.0110306
v 0.0175998 0.761644 -0.0198462
v 0.0484338 0.773381 0.0344704
v 0.0473266 0.755775 0.0119112
v 0.0473266 0.746949 0.00309563
v 0.0429292 0.746949 -0.00570461
v 0.041822 0.749167 -0.00625557
v 0.0330168 0.753557 -0.0150711
v 0.0330168 0.749167 -0.017275
v 0.0242115 0.749167 -0.0238866
v 0.0220076 0.751362 -0.0244223
v 0.0198037 0.75797 -0.0216827
v 0.0366899 0.746949 -0.0154384
v 0.0484338 0.755775 0.0168546
v -0.0198252 0.787706 0.00585048
v -0.0341351 0.769523 -0.000761165
v -0.0374461 0.752471 -0.0117653
v -0.0374461 0.761274 -0.00296505
v -0.024233 0.756861 -0.0205808
v -0.0473482 0.765133 0.0212624
v -0.0462514 0.752471 0.00585048
v -0.0484553 0.755775 0.0168546
v -0.0484553 0.773381 0.0344704
v -0.051756 0.773936 0.0652941
v -0.0513938 0.776316 0.0697019
v -0.0484553 0.791011 0.105836
v -0.0452167 0.79748 0.105836
v 0.0513723 0.77486 0.105836
v 0.0528416 0.738146 0.0300626
v 0.0517344 0.772827 0.0697019
v -0.00881603 0.77486 -0.0110306
v -0.00881603 0.766034 -0.0198462
v -0.0176213 0.761644 -0.0198462
v 0.0109984 0.76236 -0.0216827
v 0.0043867 0.760165 -0.0244223
v -1.076e-05 0.761644 -0.0242386
v 0.0484338 0.742559 0.00364659
v 0.0473266 0.738146 -0.00131215
v 0.0410874 0.742559 -0.0110306
v 0.0429292 0.72054 -0.0189279
v 0.0366899 0.738146 -0.0198462
v 0.0330168 0.735951 -0.0238866
v 0.0220076 0.742559 -0.0288301
v 0.0308129 0.72054 -0.0332378
v 0.0220076 0.72493 -0.0376456
v 0.0175998 0.729343 -0.0376456
v 0.0528416 0.72054 0.0124621
v -0.0330383 0.752471 -0.016173
v -0.0418436 0.739255 -0.0117653
v -0.0418436 0.748058 -0.00735752
v -0.0462514 0.748058 0.00144272
v -0.0374461 0.734842 -0.0205808
v -0.0220291 0.756307 -0.0216827
v -0.0198252 0.726039 -0.0381966
v -0.024233 0.739255 -0.029381
v -0.0473482 0.751917 0.00805436
v -0.0484553 0.742559 0.00364659
v -0.0528631 0.72054 0.0124621
v -0.0528631 0.729343 0.0212624
v -0.0528631 0.733733 0.0256701
v -0.051756 0.773381 0.0702528
v -0.0513938 0.776316 0.105836
v 0.0484338 0.755775 0.105836
v 0.0489511 0.590204 0.0173903
v 0.0497375 0.590204 0.0142528
v 0.0528416 0.590204 -0.000761165
v -0.0132238 0.76072 -0.0216827
v 0.0021828 0.75797 -0.0260752
v -1.076e-05 0.755775 -0.0271772
v -0.0132238 0.730799 -0.0374619
v -0.0176213 0.725485 -0.0392985
v -0.00440822 0.756307 -0.0260752
v 0.0484338 0.707347 -0.0139692
v 0.0473266 0.72054 -0.0101124
v 0.0410874 0.72493 -0.0198462
v 0.0473266 0.711714 -0.0145201
v 0.0454952 0.707347 -0.0198462
v 0.0410874 0.716127 -0.0242386
v 0.0366899 0.72054 -0.0286464
v 0.0330168 0.722735 -0.030483
v 0.0352207 0.707347 -0.0332378
v 0.0264154 0.716127 -0.0376456
v 0.0220076 0.707347 -0.0420534
v 0.0198037 0.722735 -0.0392985
v 0.0153959 0.727125 -0.0392985
v 0.0528416 0.698521 0.00805436
v -0.0330383 0.726039 -0.029381
v -0.0418436 0.721626 -0.0205808
v -0.0425782 0.726409 -0.0169077
v -0.0425782 0.744015 -0.00809214
v -0.046986 0.744015 0.000708078
v -0.0473482 0.747504 0.00364659
v -0.0374461 0.726039 -0.0249733
v -0.0205598 0.721996 -0.0389312
v -0.024233 0.717236 -0.0381966
v -0.024233 0.730429 -0.0337888
v -0.046986 0.735212 -0.00369968
v -0.0484553 0.707347 -0.0139692
v -0.0528631 0.619247 -0.000761165
v -0.0513938 0.77486 0.105836
v -0.0528631 0.590204 -0.000761165
v 0.0472646 0.753419 0.105836
v 0.0330168 0.590204 0.0410667
v 0.0334203 0.590204 0.0406688
v 0.0378281 0.590204 0.036261
v 0.041822 0.590204 0.0322665
v 0.0458263 0.590204 0.0242774
v 0.0464368 0.590204 0.023053
v 0.0490856 0.590204 -0.0180402
v 0.0528416 0.650093 -0.000761165
v 0.0021828 0.749167 -0.030483
v -1.076e-05 0.723474 -0.0433389
v -0.0132238 0.72493 -0.0404005
v -0.00440822 0.721072 -0.0437063
v -0.00881603 0.716682 -0.0437063
v -0.0176213 0.707902 -0.0437063
v 0.0484338 0.654483 -0.0183769
v 0.0410874 0.694131 -0.0286464
v 0.0366899 0.702934 -0.0330542
v 0.0381592 0.707347 -0.0301157
v 0.0469645 0.654483 -0.0213154
v 0.0454952 0.654483 -0.0242386
v 0.0278743 0.711714 -0.0374619
v 0.0234769 0.702934 -0.0418697
v 0.0198037 0.705129 -0.0437063
v 0.0175998 0.72054 -0.0404005
v 0.0132023 0.72493 -0.0404005
v 0.0021828 0.722735 -0.0437063
v -0.0337729 0.721996 -0.0301157
v -0.0367115 0.719061 -0.0286464
v -0.0425782 0.717583 -0.0213154
v -0.046986 0.70878 -0.0169077
v -0.0381807 0.721996 -0.0257079
v -0.0205598 0.704413 -0.0433389
v -0.0249677 0.713193 -0.0389312
v -0.046986 0.669178 -0.0213154
v -0.0484553 0.667699 -0.0183769
v -0.0490347 0.590204 -0.0183769
v -0.0484553 0.755775 0.105836
v -0.0494279 0.590204 0.0168546
v 0.0469645 0.752818 0.105836
v 0.0189035 0.590204 0.0489792
v 0.0454952 0.749884 0.105836
v 0.0381592 0.739625 0.105836
v 0.0477819 0.590204 -0.0213154
v -1.076e-05 0.72054 -0.0447929
v -0.0132238 0.707347 -0.0447929
v -0.0176213 0.702934 -0.0447929
v 0.0366899 0.676502 -0.0374619
v 0.0471818 0.590204 -0.0225092
v 0.0464368 0.590204 -0.0237795
v 0.0278743 0.685328 -0.0418697
v 0.0242115 0.687523 -0.0437063
v 0.0198037 0.674307 -0.0480987
v 0.0175998 0.672112 -0.0492007
v 0.0175998 0.702934 -0.0447929
v 0.0132023 0.707347 -0.0447929
v 0.0109984 0.713932 -0.0437063
v -0.0367115 0.701478 -0.0330542
v -0.0381807 0.70878 -0.0301157
v -0.0455167 0.705868 -0.0198462
v -0.0176213 0.672112 -0.0492007
v -0.0205598 0.673567 -0.0477314
v -0.0249677 0.686784 -0.0433389
v -0.0234984 0.701478 -0.0418697
v -0.0455167 0.666243 -0.0242386
v -0.0472654 0.590204 -0.0224327
v -0.046986 0.752818 0.105836
v -0.0488381 0.590204 0.0180637
v -0.0450304 0.590204 0.0256701
v -0.0444303 0.590204 0.0268639
v -0.0405398 0.590204 0.0326644
v -0.0384498 0.590204 0.0350672
v -0.034042 0.590204 0.0394597
v 0.0043867 0.590204 0.0520861
v 0.0278743 0.732277 0.105836
v -1.076e-05 0.694131 -0.0492007
v -0.00881603 0.685328 -0.0492007
v -0.0132238 0.680915 -0.0492007
v 0.0234769 0.672112 -0.0462622
v 0.0376212 0.590204 -0.0369875
v 0.0358208 0.590204 -0.0382272
v 0.0320131 0.590204 -0.0407831
v 0.0226077 0.590204 -0.0470274
v 0.0214075 0.590204 -0.0476243
v 0.0132023 0.680915 -0.0492007
v 0.0175998 0.590204 -0.0492007
v 0.0149923 0.590204 -0.0501802
v 0.00928082 0.590204 -0.0505169
v 0.00879451 0.685328 -0.0492007
v -0.0367115 0.675046 -0.0374619
v -0.0381807 0.682371 -0.0345234
v -0.0411089 0.692652 -0.0286464
v -0.00881603 0.590204 -0.0505169
v -0.0176213 0.590204 -0.0492007
v -0.0206012 0.590204 -0.0484507
v -0.0216877 0.590204 -0.0480222
v -0.0234984 0.670633 -0.0462622
v -0.045972 0.590204 -0.0246978
v -0.0455167 0.749884 0.105836
v -0.031838 0.590204 0.041281
v -0.00440822 0.590204 0.0520861
v 0.0249461 0.730799 0.105836
v 0.0132023 0.72493 0.105836
v 0.024615 0.590204 -0.0456959
v -0.0239537 0.590204 -0.0467213
v -0.0371667 0.590204 -0.0379211
v -0.0381807 0.739625 0.105836
v -0.0305654 0.590204 0.0420156
v -0.00734676 0.590204 0.051428
v -0.0132238 0.72493 0.105836
v -0.0249677 0.730799 0.105836
v -0.0278958 0.732277 0.105836
v -0.021429 0.590204 0.0470814
v -0.0202287 0.590204 0.0476783
v -0.0163176 0.590204 0.0489792
f 782 783 786
f 782 786 793
f 782 793 801
f 782 801 790
f 782 790 784
f 782 784 791
f 782 791 803
f 782 803 820
f 782 820 842
f 782 842 872
f 782 872 902
f 782 902 935
f 782 935 934
f 782 934 970
f 782 970 1008
f 782 1008 1047
f 782 1047 1076
f 782 1076 1108
f 782 1108 1116
f 782 1116 1121
f 782 1121 1120
f 782 1120 1119
f 782 1119 1112
f 782 1112 1111
f 782 1111 1084
f 782 1084 1052
f 782 1052 1051
f 782 1051 1049
f 782 1049 1010
f 782 1010 971
f 782 971 936
f 782 936 903
f 782 903 873
f 782 873 843
f 782 843 821
f 782 821 804
f 782 804 792
f 782 792 785
f 782 785 787
f 782 787 783
f 783 787 788
f 783 788 789
f 783 789 786
f 784 790 800
f 784 800 791
f 785 792 795
f 785 795 787
f 786 789 794
f 786 794 793
f 787 795 796
f 787 796 797
f 787 797 788
f 788 797 798
f 788 798 789
f 789 798 794
f 790 799 800
f 790 801 802
f 790 802 799
f 791 800 803
f 792 804 809
f 792 809 795
f 793 794 801
f 794 802 801
f 794 798 805
f 794 805 806
f 794 806 807
f 794 807 802
f 795 808 797
f 795 797 796
f 795 809 808
f 797 810 798
f 797 808 809
f 797 809 811
f 797 811 812
f 797 812 813
f 797 813 814
f 797 814 815
f 797 815 810
f 798 810 805
f 799 802 807
f 799 807 816
f 799 816 817
f 799 817 818
f 799 818 800
f 800 818 819
f 800 819 803
f 803 819 820
f 804 821 824
f 804 824 809
f 805 810 822
f 805 822 823
f 805 823 806
f 806 823 807
f 807 823 816
f 809 824 812
f 809 812 811
f 810 815 825
f 810 825 826
f 810 826 822
f 812 827 828
f 812 828 814
f 812 814 813
f 812 824 829
f 812 829 852
f 812 852 827
f 814 830 815
f 814 828 831
f 814 831 832
f 814 832 833
f 814 833 830
f 815 830 825
f 816 834 835
f 816 835 818
f 816 818 817
f 816 823 836
f 816 836 837
f 816 837 838
f 816 838 839
f 816 839 834
f 818 835 819
f 819 835 834
f 819 834 840
f 819 840 841
f 819 841 842
f 819 842 820
f 821 843 824
f 822 826 823
f 823 844 845
f 823 845 836
f 823 826 846
f 823 846 844
f 824 843 829
f 825 830 847
f 825 847 848
f 825 848 849
f 825 849 850
f 825 850 826
f 826 850 851
f 826 851 876
f 826 876 846
f 827 852 853
f 827 853 854
f 827 854 828
f 828 854 831
f 829 843 852
f 830 833 855
f 830 855 856
f 830 856 847
f 831 854 859
f 831 859 832
f 832 857 858
f 832 858 833
f 832 859 860
f 832 860 857
f 833 858 855
f 834 839 840
f 836 845 861
f 836 861 837
f 837 839 838
f 837 861 862
f 837 862 863
f 837 863 864
f 837 864 839
f 839 865 866
f 839 866 867
f 839 867 868
f 839 868 869
f 839 869 870
f 839 870 841
f 839 841 840
f 839 864 871
f 839 871 865
f 841 870 872
f 841 872 842
f 843 873 874
f 843 874 852
f 844 846 877
f 844 877 875
f 844 875 845
f 845 875 861
f 846 876 877
f 847 856 848
f 848 851 849
f 848 856 878
f 848 878 851
f 849 851 850
f 851 878 879
f 851 879 906
f 851 906 876
f 852 874 880
f 852 880 853
f 853 880 911
f 853 911 881
f 853 881 859
f 853 859 854
f 855 858 856
f 856 858 882
f 856 882 878
f 857 860 883
f 857 883 884
f 857 884 885
f 857 885 858
f 858 886 887
f 858 887 882
f 858 885 888
f 858 888 886
f 859 881 860
f 860 881 889
f 860 889 883
f 861 875 890
f 861 890 891
f 861 891 892
f 861 892 893
f 861 893 862
f 862 893 894
f 862 894 863
f 863 894 864
f 864 894 895
f 864 895 896
f 864 896 897
f 864 897 871
f 865 871 897
f 865 897 866
f 866 897 867
f 867 897 898
f 867 898 899
f 867 899 900
f 867 900 901
f 867 901 869
f 867 869 868
f 869 902 870
f 869 901 900
f 869 900 935
f 869 935 902
f 870 902 872
f 873 903 904
f 873 904 874
f 874 904 905
f 874 905 880
f 875 877 876
f 875 876 890
f 876 891 890
f 876 906 907
f 876 907 891
f 878 908 909
f 878 909 879
f 878 882 887
f 878 887 910
f 878 910 908
f 879 909 939
f 879 939 906
f 880 905 911
f 881 911 889
f 883 889 884
f 884 912 913
f 884 913 914
f 884 914 915
f 884 915 888
f 884 888 885
f 884 889 912
f 886 888 916
f 886 916 887
f 887 916 917
f 887 917 918
f 887 918 951
f 887 951 919
f 887 919 920
f 887 920 910
f 888 915 947
f 888 947 921
f 888 921 916
f 889 911 922
f 889 922 912
f 891 907 892
f 892 907 893
f 893 907 923
f 893 923 894
f 894 924 925
f 894 925 926
f 894 926 895
f 894 923 927
f 894 927 924
f 895 926 896
f 896 928 897
f 896 926 925
f 896 925 929
f 896 929 928
f 897 928 930
f 897 930 931
f 897 931 898
f 898 931 932
f 898 932 899
f 899 932 900
f 900 932 933
f 900 933 970
f 900 970 934
f 900 934 935
f 903 936 937
f 903 937 938
f 903 938 905
f 903 905 904
f 905 938 937
f 905 937 911
f 906 939 907
f 907 939 940
f 907 940 941
f 907 941 923
f 908 910 920
f 908 920 942
f 908 942 943
f 908 943 944
f 908 944 909
f 909 944 939
f 911 937 922
f 912 922 945
f 912 945 913
f 913 945 946
f 913 946 948
f 913 948 914
f 914 947 915
f 914 948 947
f 916 921 917
f 917 921 949
f 917 949 950
f 917 950 918
f 918 950 952
f 918 952 953
f 918 953 951
f 919 951 954
f 919 954 920
f 920 954 942
f 921 947 949
f 922 937 955
f 922 955 945
f 923 941 927
f 924 927 956
f 924 956 925
f 925 957 958
f 925 958 959
f 925 959 929
f 925 956 960
f 925 960 996
f 925 996 957
f 927 941 961
f 927 961 979
f 927 979 962
f 927 962 963
f 927 963 956
f 928 929 964
f 928 964 965
f 928 965 930
f 929 959 1000
f 929 1000 964
f 930 965 966
f 930 966 967
f 930 967 931
f 931 967 968
f 931 968 932
f 932 969 970
f 932 970 933
f 932 968 969
f 936 971 972
f 936 972 973
f 936 973 974
f 936 974 937
f 937 974 1018
f 937 1018 994
f 937 994 955
f 939 944 940
f 940 944 975
f 940 975 941
f 941 975 961
f 942 954 943
f 943 954 976
f 943 976 944
f 944 976 1019
f 944 1019 977
f 944 977 1021
f 944 1021 978
f 944 978 979
f 944 979 980
f 944 980 975
f 945 955 981
f 945 981 946
f 946 981 982
f 946 982 948
f 947 948 983
f 947 983 949
f 948 982 984
f 948 984 985
f 948 985 986
f 948 986 983
f 949 983 987
f 949 987 950
f 950 987 988
f 950 988 952
f 951 953 954
f 952 988 987
f 952 987 989
f 952 989 990
f 952 990 953
f 953 990 991
f 953 991 992
f 953 992 954
f 954 992 993
f 954 993 976
f 955 994 981
f 956 963 995
f 956 995 960
f 957 996 997
f 957 997 998
f 957 998 958
f 958 998 999
f 958 999 959
f 959 999 1000
f 960 995 1001
f 960 1001 996
f 961 975 979
f 962 979 1002
f 962 1002 1043
f 962 1043 1003
f 962 1003 995
f 962 995 1004
f 962 1004 963
f 963 1004 995
f 964 1000 965
f 965 1000 999
f 965 999 1005
f 965 1005 1006
f 965 1006 966
f 966 1006 1007
f 966 1007 1009
f 966 1009 968
f 966 968 967
f 968 1008 970
f 968 970 969
f 968 1009 1008
f 971 1010 1011
f 971 1011 1012
f 971 1012 1013
f 971 1013 1014
f 971 1014 1015
f 971 1015 1016
f 971 1016 972
f 972 1016 1015
f 972 1015 1014
f 972 1014 1013
f 972 1013 1012
f 972 1012 1011
f 972 1011 1050
f 972 1050 1083
f 972 1083 1110
f 972 1110 1118
f 972 1118 1124
f 972 1124 1123
f 972 1123 1122
f 972 1122 1117
f 972 1117 1109
f 972 1109 1082
f 972 1082 1081
f 972 1081 1080
f 972 1080 1079
f 972 1079 1078
f 972 1078 1077
f 972 1077 1048
f 972 1048 1009
f 972 1009 1046
f 972 1046 1075
f 972 1075 1107
f 972 1107 1115
f 972 1115 1114
f 972 1114 1105
f 972 1105 1104
f 972 1104 1103
f 972 1103 1102
f 972 1102 1097
f 972 1097 1096
f 972 1096 1095
f 972 1095 1093
f 972 1093 1092
f 972 1092 1113
f 972 1113 1091
f 972 1091 1090
f 972 1090 1089
f 972 1089 1059
f 972 1059 1058
f 972 1058 1053
f 972 1053 1017
f 972 1017 974
f 972 974 973
f 974 1017 1018
f 975 980 979
f 976 993 1019
f 977 1019 1020
f 977 1020 1021
f 978 1021 979
f 979 1021 1022
f 979 1022 1023
f 979 1023 1024
f 979 1024 1042
f 979 1042 1002
f 981 994 1018
f 981 1018 1025
f 981 1025 1029
f 981 1029 985
f 981 985 984
f 981 984 982
f 983 986 987
f 985 1026 1027
f 985 1027 1028
f 985 1028 986
f 985 1029 1030
f 985 1030 1026
f 986 1028 987
f 987 1028 1027
f 987 1027 989
f 989 1027 990
f 990 1027 1031
f 990 1031 1032
f 990 1032 991
f 991 1032 1033
f 991 1033 992
f 992 1034 1035
f 992 1035 993
f 992 1033 1034
f 993 1035 1036
f 993 1036 1019
f 995 1003 1043
f 995 1043 1037
f 995 1037 1038
f 995 1038 1001
f 996 1001 1041
f 996 1041 1039
f 996 1039 997
f 997 1039 1040
f 997 1040 1005
f 997 1005 999
f 997 999 998
f 1001 1038 1041
f 1002 1042 1043
f 1005 1040 1006
f 1006 1040 1044
f 1006 1044 1045
f 1006 1045 1007
f 1007 1045 1046
f 1007 1046 1009
f 1008 1009 1048
f 1008 1048 1047
f 1010 1049 1011
f 1011 1049 1051
f 1011 1051 1052
f 1011 1052 1050
f 1017 1053 1025
f 1017 1025 1018
f 1019 1036 1020
f 1020 1036 1054
f 1020 1054 1021
f 1021 1054 1022
f 1022 1054 1023
f 1023 1054 1024
f 1024 1055 1056
f 1024 1056 1042
f 1024 1054 1055
f 1025 1053 1029
f 1026 1030 1057
f 1026 1057 1027
f 1027 1057 1032
f 1027 1032 1031
f 1029 1053 1030
f 1030 1053 1058
f 1030 1058 1059
f 1030 1059 1057
f 1032 1057 1060
f 1032 1060 1061
f 1032 1061 1033
f 1033 1061 1062
f 1033 1062 1063
f 1033 1063 1064
f 1033 1064 1065
f 1033 1065 1066
f 1033 1066 1034
f 1034 1036 1035
f 1034 1066 1036
f 1036 1066 1065
f 1036 1065 1054
f 1037 1043 1038
f 1038 1039 1041
f 1038 1043 1067
f 1038 1067 1068
f 1038 1068 1039
f 1039 1068 1069
f 1039 1069 1040
f 1040 1069 1044
f 1042 1056 1070
f 1042 1070 1071
f 1042 1071 1072
f 1042 1072 1073
f 1042 1073 1043
f 1043 1073 1067
f 1044 1069 1074
f 1044 1074 1075
f 1044 1075 1045
f 1045 1075 1046
f 1047 1048 1077
f 1047 1077 1078
f 1047 1078 1079
f 1047 1079 1080
f 1047 1080 1081
f 1047 1081 1082
f 1047 1082 1076
f 1050 1052 1084
f 1050 1084 1083
f 1054 1065 1085
f 1054 1085 1055
f 1055 1085 1086
f 1055 1086 1087
f 1055 1087 1056
f 1056 1087 1070
f 1057 1088 1060
f 1057 1059 1089
f 1057 1089 1090
f 1057 1090 1091
f 1057 1091 1088
f 1060 1088 1061
f 1061 1088 1062
f 1062 1088 1092
f 1062 1092 1093
f 1062 1093 1063
f 1063 1094 1064
f 1063 1093 1095
f 1063 1095 1096
f 1063 1096 1097
f 1063 1097 1094
f 1064 1094 1065
f 1065 1094 1098
f 1065 1098 1085
f 1067 1073 1099
f 1067 1099 1100
f 1067 1100 1068
f 1068 1100 1101
f 1068 1101 1069
f 1069 1101 1074
f 1070 1087 1102
f 1070 1102 1103
f 1070 1103 1104
f 1070 1104 1105
f 1070 1105 1071
f 1071 1105 1106
f 1071 1106 1072
f 1072 1106 1099
f 1072 1099 1073
f 1074 1101 1100
f 1074 1100 1099
f 1074 1099 1107
f 1074 1107 1075
f 1076 1082 1108
f 1082 1109 1108
f 1083 1084 1111
f 1083 1111 1112
f 1083 1112 1119
f 1083 1119 1110
f 1085 1098 1097
f 1085 1097 1102
f 1085 1102 1086
f 1086 1102 1087
f 1088 1091 1113
f 1088 1113 1092
f 1094 1097 1098
f 1099 1106 1114
f 1099 1114 1115
f 1099 1115 1107
f 1105 1114 1106
f 1108 1109 1116
f 1109 1117 1116
f 1110 1119 1120
f 1110 1120 1121
f 1110 1121 1118
f 1116 1117 1122
f 1116 1122 1123
f 1116 1123 1124
f 1116 1124 1121
f 1118 1121 1124
