o convex_0
v -0.0323339 -0.20128 0.880317
v 0.0327549 -0.20128 0.880317
v -0.0485981 -0.20128 0.896625
v -0.0485981 -0.0385343 0.101226
v 0.0490191 -0.20128 0.896625
v 0.0490191 -0.0385343 0.101226
v -0.0485981 -0.20128 0.929152
v -0.0702944 -0.190408 0.891189
v -0.0567382 -0.193118 0.872163
v -0.060641 -0.0342858 0.101226
v 0.0707154 -0.190408 0.896625
v 0.0490191 -0.20128 0.929152
v 0.0510581 -0.197199 0.880317
v 0.0612213 -0.0324459 0.101226
v -0.0702944 -0.190408 0.923715
v 0.0571592 -0.197199 0.937306
v -0.0485981 -0.195827 0.940024
v -0.0567382 -0.193118 0.941383
v -0.0594463 -0.195827 0.934588
v -0.0811585 -0.168731 0.896625
v -0.0765866 -0.0177269 0.101226
v -0.0702944 -0.0276957 0.101226
v 0.0775015 -0.17686 0.888471
v 0.0815795 -0.168731 0.896625
v 0.0707154 -0.190408 0.929152
v 0.0707154 -0.0276957 0.101226
v -0.0757264 -0.17957 0.950806
v 0.0652993 -0.191077 0.945369
v 0.0490191 -0.190408 0.950806
v -0.0485981 -0.190408 0.950806
v -0.0648783 -0.18907 0.943376
v -0.0811585 -0.168731 0.945369
v -0.0811585 -0.00601854 0.101226
v 0.0714004 -0.0263576 0.101226
v 0.0815795 -0.00601854 0.101226
v 0.0815795 -0.168731 0.945369
v 0.0761474 -0.17957 0.945369
v 0.0734394 -0.180908 0.953524
v -0.0730184 -0.17686 0.957601
v -0.0730184 -0.160569 0.982063
v -0.0770805 -0.168731 0.963671
v 0.0571592 -0.16465 0.98605
v 0.0490191 -0.157859 0.99964
v -0.0648783 -0.17415 0.967114
v -0.0485981 -0.157859 0.99964
v -0.0811585 -0.136182 0.977986
v -0.0811585 0.091629 0.101226
v 0.0815795 0.091629 0.101226
v 0.0815795 -0.136182 0.977986
v 0.0775015 -0.15448 0.977986
v 0.0775015 -0.170738 0.961678
v 0.0734394 -0.156521 0.98605
v -0.0730184 -0.144311 0.998281
v -0.0770805 -0.136182 0.996288
v 0.0734394 -0.14023 1.00236
v 0.0327549 -0.141601 1.01595
v -0.0323339 -0.141601 1.01595
v -0.0485981 -0.136182 1.01658
v -0.0567382 -0.144311 1.00644
v -0.0811585 -0.119891 0.994204
v -0.0702944 0.11334 0.101226
v -0.0811585 0.091629 0.717595
v 0.0714004 0.114009 0.101226
v 0.0815795 0.091629 0.717595
v 0.0815795 -0.119891 0.994204
v 0.0775015 -0.138189 0.994204
v -0.0730184 -0.128019 1.00644
v -0.0757264 -0.119891 1.00508
v 0.0761474 -0.12531 1.00508
v 0.043603 -0.12531 1.02138
v 0.0490191 -0.134141 1.01459
v 0.040895 -0.132101 1.01867
v 0.0327549 -0.119891 1.02682
v -0.0323339 -0.119891 1.02682
v -0.040474 -0.128019 1.02274
v -0.0770805 -0.111762 1.00236
v -0.0770805 -0.0629211 0.969832
v -0.0811585 -0.0710835 0.961678
v -0.0689563 0.114009 0.101226
v -0.0702944 0.11334 0.701286
v -0.0811585 0.0753712 0.782647
v -0.0770805 0.099758 0.725749
v 0.0490191 0.124178 0.101226
v 0.0490191 0.124178 0.701286
v 0.0707154 0.11334 0.706723
v 0.0707154 0.0970483 0.788084
v 0.0815795 0.0753712 0.782647
v 0.0815795 -0.0873413 0.977986
v 0.0734394 -0.0954703 1.00236
v -0.0540302 -0.103633 1.01595
v 0.0544512 -0.0981799 1.01595
v 0.0327549 -0.103633 1.02682
v -0.0323339 -0.103633 1.02682
v -0.0689404 -0.0954703 1.00236
v -0.0811585 -0.0385343 0.929152
v -0.0526761 -0.0629211 1.00236
v -0.0689404 -0.0466632 0.969832
v -0.0709794 -0.0222764 0.945369
v -0.0709794 -0.00601854 0.929152
v -0.0709794 0.0265306 0.896625
v -0.0770805 0.0509509 0.855945
v -0.0811585 0.042822 0.847791
v -0.0581082 0.119428 0.101226
v -0.0702944 0.0970483 0.782647
v -0.0540302 0.11334 0.76643
v -0.0485981 0.124178 0.701286
v -0.0770805 0.0835001 0.790802
v 0.0002105 0.14047 0.101226
v 0.0002105 0.14047 0.701286
v 0.0327549 0.124178 0.76643
v 0.0544512 0.11334 0.771775
v 0.0734394 0.0835001 0.80711
v 0.0517431 0.11063 0.785365
v 0.0571592 0.099758 0.80711
v 0.0544512 0.0970483 0.82061
v 0.0544512 0.0807905 0.853227
v 0.0707154 0.0644991 0.853227
v 0.0815795 0.042822 0.847791
v 0.0734394 -0.0629211 0.98605
v 0.0815795 -0.0222764 0.929152
v 0.0734394 0.0021104 0.937306
v 0.0571592 -0.0629211 1.00236
v 0.0707154 -0.081922 0.99964
v -0.034357 -0.0873413 1.02274
v -0.036396 -0.0792124 1.01867
v 0.040895 -0.0792124 1.01867
v 0.0300309 -0.090051 1.0241
v 0.0164747 -0.0873413 1.02682
v -0.0160537 -0.0873413 1.02682
v -0.0214858 -0.0765027 1.02138
v -0.03775 -0.0602114 1.00508
v -0.0214858 -0.0114378 0.97255
v -0.036396 -0.0141475 0.969832
v -0.0526761 0.0184017 0.937306
v -0.0709794 0.042822 0.880317
v -0.0608162 0.0509509 0.888471
v -0.0702944 0.0644991 0.847791
v -0.0485981 0.124178 0.101226
v -0.0526761 0.099758 0.80711
v -0.036396 0.116049 0.790802
v -0.034357 0.120097 0.782647
v -0.0323339 0.124178 0.76643
v -0.0160537 0.124178 0.782647
v 0.0164747 0.124178 0.782647
v 0.040895 0.116049 0.790802
v 0.0707154 0.0482413 0.885753
v 0.0734394 0.0509509 0.872163
v 0.038171 0.0970483 0.836918
v 0.038171 0.0807905 0.869445
v 0.0571592 0.0509509 0.904689
v 0.0815795 0.0265306 0.880317
v 0.0815795 0.0102728 0.896625
v 0.0571592 0.0184017 0.937306
v 0.0571592 0.0021104 0.953524
v 0.0734394 0.0184017 0.920997
v 0.038171 -0.0493728 0.99964
v 0.038171 0.0156921 0.950806
v 0.0219068 -0.0656642 1.01595
v -0.0106376 -0.0656642 1.01595
v 0.0056266 -0.0168571 0.983422
v -0.0106376 -0.000599242 0.967114
v -0.03775 0.0211114 0.940024
v -0.0269019 0.0319499 0.934588
v -0.0269019 0.0482413 0.918279
v -0.0526761 0.0509509 0.904689
v -0.0526761 0.0835001 0.839636
v -0.036396 0.0835001 0.855945
v -0.0214858 0.118759 0.79352
v 0.0219068 0.11334 0.804392
v 0.0327549 0.10792 0.815174
v 0.0734394 0.0346596 0.904689
v 0.0327549 0.091629 0.847791
v 0.0164747 0.0753712 0.880317
v 0.0219068 0.0644991 0.901971
v 0.040895 0.0672088 0.888471
v 0.038171 0.0482413 0.918279
v 0.038171 0.0319499 0.934588
v -0.0106376 0.0644991 0.901971
v -0.0214858 0.0699184 0.891189
v -0.03775 0.0536606 0.907407
v -0.036396 0.0672088 0.888471
v -0.0106376 0.11334 0.804392
v -0.0160537 0.0753712 0.880317
v 0.0110586 0.0699184 0.891189
f 1 2 5
f 1 5 12
f 1 12 7
f 1 7 3
f 1 3 4
f 1 4 6
f 1 6 2
f 2 6 5
f 3 7 15
f 3 15 8
f 3 8 9
f 3 9 10
f 3 10 4
f 4 10 22
f 4 22 21
f 4 21 33
f 4 33 47
f 4 47 61
f 4 61 79
f 4 79 103
f 4 103 138
f 4 138 108
f 4 108 83
f 4 83 63
f 4 63 48
f 4 48 35
f 4 35 34
f 4 34 26
f 4 26 14
f 4 14 6
f 5 11 25
f 5 25 12
f 5 6 13
f 5 13 11
f 6 14 13
f 7 12 16
f 7 16 17
f 7 17 18
f 7 18 19
f 7 19 15
f 8 15 27
f 8 27 32
f 8 32 20
f 8 20 21
f 8 21 22
f 8 22 10
f 8 10 9
f 11 23 24
f 11 24 36
f 11 36 37
f 11 37 25
f 11 13 26
f 11 26 23
f 12 25 16
f 13 14 26
f 15 19 27
f 16 28 29
f 16 29 30
f 16 30 17
f 16 25 28
f 17 30 18
f 18 30 31
f 18 31 19
f 19 31 27
f 20 32 46
f 20 46 60
f 20 60 78
f 20 78 95
f 20 95 102
f 20 102 81
f 20 81 62
f 20 62 47
f 20 47 33
f 20 33 21
f 23 26 34
f 23 34 35
f 23 35 24
f 24 35 48
f 24 48 64
f 24 64 87
f 24 87 118
f 24 118 151
f 24 151 152
f 24 152 120
f 24 120 88
f 24 88 65
f 24 65 49
f 24 49 36
f 25 37 38
f 25 38 28
f 27 31 39
f 27 39 40
f 27 40 41
f 27 41 32
f 28 38 42
f 28 42 43
f 28 43 29
f 29 43 45
f 29 45 30
f 30 44 31
f 30 45 44
f 31 44 39
f 32 41 54
f 32 54 46
f 36 49 50
f 36 50 51
f 36 51 37
f 37 51 38
f 38 51 52
f 38 52 42
f 39 44 40
f 40 45 53
f 40 53 54
f 40 54 41
f 40 44 45
f 42 52 43
f 43 52 55
f 43 55 56
f 43 56 57
f 43 57 45
f 45 57 58
f 45 58 59
f 45 59 53
f 46 54 60
f 47 62 80
f 47 80 61
f 48 63 64
f 49 65 66
f 49 66 50
f 50 66 55
f 50 55 52
f 50 52 51
f 53 59 58
f 53 58 67
f 53 67 54
f 54 67 68
f 54 68 60
f 55 66 69
f 55 69 70
f 55 70 71
f 55 71 56
f 56 71 72
f 56 72 73
f 56 73 74
f 56 74 57
f 57 74 75
f 57 75 58
f 58 75 67
f 60 68 76
f 60 76 77
f 60 77 78
f 61 80 79
f 62 81 107
f 62 107 82
f 62 82 80
f 63 83 84
f 63 84 85
f 63 85 64
f 64 85 86
f 64 86 87
f 65 88 89
f 65 89 69
f 65 69 66
f 67 75 93
f 67 93 90
f 67 90 68
f 68 90 76
f 69 89 91
f 69 91 92
f 69 92 73
f 69 73 70
f 70 73 72
f 70 72 71
f 73 92 128
f 73 128 129
f 73 129 93
f 73 93 74
f 74 93 75
f 76 90 94
f 76 94 77
f 77 95 78
f 77 94 96
f 77 96 97
f 77 97 98
f 77 98 99
f 77 99 100
f 77 100 101
f 77 101 102
f 77 102 95
f 79 80 106
f 79 106 103
f 80 82 104
f 80 104 105
f 80 105 142
f 80 142 106
f 81 102 101
f 81 101 107
f 82 107 104
f 83 108 109
f 83 109 84
f 84 109 110
f 84 110 85
f 85 110 111
f 85 111 86
f 86 112 87
f 86 111 113
f 86 113 114
f 86 114 115
f 86 115 116
f 86 116 117
f 86 117 112
f 87 112 118
f 88 119 89
f 88 120 121
f 88 121 119
f 89 122 91
f 89 119 123
f 89 123 122
f 90 93 124
f 90 124 125
f 90 125 96
f 90 96 94
f 91 126 92
f 91 122 126
f 92 127 128
f 92 126 127
f 93 129 124
f 96 125 130
f 96 130 131
f 96 131 132
f 96 132 133
f 96 133 134
f 96 134 97
f 97 134 98
f 98 134 99
f 99 134 100
f 100 135 101
f 100 134 135
f 101 135 136
f 101 136 137
f 101 137 104
f 101 104 107
f 103 106 138
f 104 139 105
f 104 137 139
f 105 139 140
f 105 140 141
f 105 141 142
f 106 142 109
f 106 109 108
f 106 108 138
f 109 142 143
f 109 143 144
f 109 144 110
f 110 144 145
f 110 145 111
f 111 145 113
f 112 117 146
f 112 146 147
f 112 147 118
f 113 145 114
f 114 145 115
f 115 145 148
f 115 148 116
f 116 148 149
f 116 149 150
f 116 150 146
f 116 146 117
f 118 147 171
f 118 171 151
f 119 122 123
f 119 121 122
f 120 152 121
f 121 153 154
f 121 154 122
f 121 152 155
f 121 155 153
f 122 156 158
f 122 158 126
f 122 154 157
f 122 157 156
f 124 129 130
f 124 130 125
f 126 158 128
f 126 128 127
f 128 158 159
f 128 159 130
f 128 130 129
f 130 159 160
f 130 160 131
f 131 160 132
f 132 161 163
f 132 163 162
f 132 162 134
f 132 134 133
f 132 160 161
f 134 162 163
f 134 163 164
f 134 164 165
f 134 165 135
f 135 165 136
f 136 165 137
f 137 165 166
f 137 166 139
f 139 166 167
f 139 167 140
f 140 168 141
f 140 167 168
f 141 143 142
f 141 168 143
f 143 168 182
f 143 182 169
f 143 169 144
f 144 169 170
f 144 170 145
f 145 170 148
f 146 150 171
f 146 171 147
f 148 172 149
f 148 170 169
f 148 169 172
f 149 172 173
f 149 173 174
f 149 174 175
f 149 175 150
f 150 155 171
f 150 175 176
f 150 176 153
f 150 153 155
f 151 171 155
f 151 155 152
f 153 177 157
f 153 157 154
f 153 176 177
f 156 160 158
f 156 157 160
f 157 177 160
f 158 160 159
f 160 163 161
f 160 177 163
f 163 177 176
f 163 176 164
f 164 176 174
f 164 174 178
f 164 178 179
f 164 179 180
f 164 180 165
f 165 180 179
f 165 179 181
f 165 181 167
f 165 167 166
f 167 181 179
f 167 179 168
f 168 179 183
f 168 183 182
f 169 182 183
f 169 183 173
f 169 173 172
f 173 183 179
f 173 179 184
f 173 184 174
f 174 184 179
f 174 179 178
f 174 176 175
o convex_1
v 0.152082 0.373684 -0.0255629
v 0.154796 0.425208 -0.0553624
v 0.13853 0.408956 -0.0228538
v 0.13853 0.457783 -0.0553624
v 0.154796 0.441532 -0.0716423
v 0.154796 0.457783 -0.104202
v 0.179222 0.417119 -0.144889
v 0.162938 0.449621 -0.128609
v 0.15751 0.46048 -0.134027
v 0.146671 0.465945 -0.128609
v 0.15751 0.46048 -0.15984
v 0.179222 0.417119 -0.15984
v 0.179222 0.384543 -0.0797951
v 0.165652 0.403491 -0.0608061
v 0.168366 0.389936 -0.0580971
v 0.135816 0.292355 0.00697137
v 0.135816 0.373684 -0.00928295
v 0.119549 0.292355 0.0232512
v 0.081587 0.0916547 0.101226
v 0.119549 0.357433 0.00697137
v 0.089729 0.408956 0.00970597
v 0.105979 0.425208 -0.00657391
v 0.087015 0.455087 -0.00928295
v 0.0571782 0.441532 0.00970597
v 0.0381974 0.455087 0.00697137
v 0.0327694 0.43337 0.0178331
v 0.00484435 0.455087 0.00697137
v 0.0653202 0.465945 -0.0147266
v 0.0598922 0.46048 -0.00386484
v 0.105979 0.457783 -0.0228538
v 0.081587 0.465945 -0.0309554
v 0.130388 0.465945 -0.0797951
v 0.130388 0.465945 -0.15984
v 0.146671 0.465945 -0.15984
v 0.179222 -0.278555 -0.163645
v 0.179222 -0.494613 -0.163645
v 0.139765 -0.278555 -0.163645
v 0.11354 0.462156 -0.15984
v 0.00484435 0.465945 -0.0147266
v 0.112687 0.461719 -0.15984
v 0.106627 0.449621 -0.15984
v 0.00484435 0.460261 -0.0270963
v 0.00484435 0.447289 -0.0332811
v 0.00484435 0.452536 -0.0309554
v 0.106627 0.254314 -0.15984
v 0.00484435 0.112497 -0.0332811
v 0.00484435 0.334769 0.0494473
v 0.00484435 0.43337 0.0178331
v 0.0327694 0.384543 0.034113
v 0.0653202 0.368292 0.034113
v 0.084301 0.387239 0.0205422
v 0.087015 0.373684 0.0232512
v 0.0714138 0.114028 0.101226
v 0.0490362 0.124157 0.101226
v 0.00484435 0.13815 0.101226
v 0.00484435 0.384543 0.034113
v 0.00484435 -0.0385017 0.101226
v 0.081587 -0.00592614 0.101226
v 0.135816 -0.147014 0.00697137
v 0.179222 -0.494676 -0.0797846
v 0.179222 -0.494676 -0.161631
v 0.139765 -0.494676 -0.163645
v 0.0318319 -0.494676 -0.0319115
v 0.00484435 -0.278482 -0.0124009
v 0.00484435 -0.278482 0.034113
v 0.0313106 -0.494676 0.0341002
v 0.0313106 -0.494676 -0.0160377
v 0.0315134 -0.494676 -0.0309824
v 0.049034 -0.494676 0.0341002
v 0.0490362 -0.0385017 0.101226
v 0.0707311 -0.0276432 0.101226
v 0.064846 -0.494676 0.0302673
v 0.0849295 -0.494676 0.0211882
v 0.0513797 -0.494676 0.0336356
v 0.152087 -0.494676 -0.025562
v 0.135812 -0.494676 -0.0092817
f 186 187 185
f 186 188 187
f 189 188 186
f 189 190 188
f 191 190 189
f 192 190 191
f 193 190 192
f 193 194 190
f 193 195 194
f 193 191 195
f 193 192 191
f 191 196 195
f 191 197 196
f 191 189 197
f 189 198 197
f 189 186 198
f 198 186 199
f 198 199 197
f 199 200 197
f 199 185 200
f 199 186 185
f 201 200 185
f 202 200 201
f 202 203 200
f 202 204 203
f 202 201 204
f 201 205 204
f 201 187 205
f 201 185 187
f 206 205 187
f 207 205 206
f 207 208 205
f 209 208 207
f 209 210 208
f 209 211 210
f 209 212 211
f 209 213 212
f 209 207 213
f 207 212 213
f 207 214 212
f 207 206 214
f 206 187 214
f 188 214 187
f 188 215 214
f 216 215 188
f 216 217 215
f 194 217 216
f 218 217 194
f 218 219 217
f 218 195 219
f 218 194 195
f 219 195 196
f 219 196 220
f 219 220 221
f 219 221 217
f 222 217 221
f 222 223 217
f 222 224 223
f 222 221 224
f 224 221 225
f 226 224 225
f 226 223 224
f 226 227 223
f 228 227 226
f 228 225 227
f 228 226 225
f 227 225 229
f 227 229 230
f 227 230 231
f 232 227 231
f 223 227 232
f 211 223 232
f 211 212 223
f 223 212 217
f 217 212 215
f 214 215 212
f 211 232 210
f 210 232 233
f 210 233 234
f 210 234 208
f 235 208 234
f 235 205 208
f 236 205 235
f 236 204 205
f 236 203 204
f 236 237 203
f 236 234 237
f 236 235 234
f 233 237 234
f 233 238 237
f 233 239 238
f 233 231 239
f 240 231 233
f 240 232 231
f 240 233 232
f 239 231 241
f 239 241 203
f 238 239 203
f 237 238 203
f 242 203 241
f 243 203 242
f 200 203 243
f 200 243 244
f 200 244 197
f 244 220 197
f 245 220 244
f 245 246 220
f 245 244 246
f 246 244 247
f 248 246 247
f 248 230 246
f 248 241 230
f 249 241 248
f 249 250 241
f 251 250 249
f 251 247 250
f 252 247 251
f 252 248 247
f 252 251 248
f 251 249 248
f 250 247 253
f 250 253 241
f 254 241 253
f 254 242 241
f 255 242 254
f 256 242 255
f 256 257 242
f 256 253 257
f 258 253 256
f 258 255 253
f 258 256 255
f 255 254 253
f 257 253 259
f 260 257 259
f 260 242 257
f 260 259 242
f 243 242 259
f 243 259 244
f 244 259 247
f 247 259 253
f 231 230 241
f 229 246 230
f 229 225 246
f 221 246 225
f 221 220 246
f 196 197 220
f 194 216 188
f 194 188 190
o convex_2
v -0.178801 -0.494676 -0.163645
v -0.178801 -0.494676 -0.0797846
v -0.178801 0.368292 -0.0797951
v -0.158452 0.376381 -0.0391081
v -0.174721 0.376381 -0.0716423
v -0.174721 0.392705 -0.0879222
v -0.158452 0.441532 -0.0879222
v -0.158452 0.425208 -0.0716423
v -0.15234 0.43337 -0.0635152
v -0.168627 0.384543 -0.0635152
v -0.15234 0.384543 -0.0309554
v -0.142184 0.441532 -0.0553624
v -0.13404 0.457783 -0.0553624
v -0.15234 0.449621 -0.0797951
v -0.158452 0.457783 -0.120456
v -0.142184 0.457783 -0.0716423
v -0.140817 0.46048 -0.0797951
v -0.132009 0.461864 -0.0635152
v -0.129978 0.465945 -0.0797951
v -0.099454 0.461864 -0.0309554
v -0.0832034 0.461864 -0.0147266
v -0.0648856 0.465945 -0.0147266
v -0.0703144 0.46048 -0.00386484
v -0.101485 0.457783 -0.0228538
v -0.13404 0.408956 -0.0228538
v -0.101485 0.425208 -0.00657391
v -0.0770915 0.457783 -0.00657391
v -0.0852348 0.408956 0.00970597
v -0.0703144 0.37915 0.0286949
v -0.0770915 0.376381 0.0259603
v -0.0703144 0.113299 0.101226
v -0.086601 0.368292 0.0232512
v -0.11912 0.400794 -0.00928295
v -0.142184 0.392705 -0.0228538
v -0.151675 0.368292 -0.0255629
v -0.151675 -0.494676 -0.025562
v -0.135387 -0.494676 -0.0092817
v -0.0811721 -0.00592614 0.101226
v -0.135389 -0.152407 0.00697137
v -0.135389 0.286889 0.00697137
v -0.0811721 0.0916547 0.101226
v -0.135389 0.368292 -0.00928295
v -0.11912 0.351967 0.00697137
v -0.0750782 0.103825 0.101226
v 0.00484435 0.13815 0.101226
v 0.000206467 0.140409 0.101226
v -0.0486171 0.124157 0.101226
v -0.0648856 0.368292 0.034113
v -0.0323486 0.384543 0.034113
v 0.000206467 0.335716 0.0503929
v 0.00484435 0.334769 0.0494473
v 0.00484435 0.384543 0.034113
v 0.00484435 0.43337 0.0178331
v 0.0312962 -0.278555 0.0341002
v 0.00484435 -0.0385017 0.101226
v 0.0312962 -0.494676 0.0341002
v 0.0312962 -0.494676 -0.0160377
v 0.0312962 -0.278555 0.000823327
v 0.00484435 0.465945 -0.0147266
v 0.00484435 0.460261 -0.0270963
v 0.00484435 0.452536 -0.0309554
v 0.00484435 0.447289 -0.0332811
v -0.122482 0.450933 -0.15984
v -0.123722 0.455889 -0.15984
v -0.132045 0.462885 -0.15984
v -0.146246 -0.278555 -0.163645
v -0.145506 -0.494676 -0.163645
v -0.178801 -0.278555 -0.163645
v -0.146246 0.465945 -0.15984
v -0.146246 0.465945 -0.128609
v -0.157086 0.46048 -0.128609
v -0.157086 0.46048 -0.15984
v -0.178801 0.417119 -0.15984
v -0.178801 0.417119 -0.144889
v -0.174721 0.425208 -0.136736
v -0.174721 0.408956 -0.104202
v -0.178801 0.400794 -0.112329
v -0.122482 0.304452 -0.15984
v -0.0648888 -0.494676 0.0341002
v -0.0865649 -0.494676 0.0232596
v -0.0765882 -0.0176592 0.101226
v -0.0703144 -0.0276432 0.101226
v -0.0606612 -0.0342749 0.101226
v -0.0486171 -0.0385017 0.101226
v -0.0269197 0.455087 0.00697137
v 0.00484435 0.455087 0.00697137
v -0.0377774 0.444228 0.012415
v -0.0323486 0.43337 0.0178331
v -0.0506484 0.43337 0.0137696
v -0.0526797 0.441532 0.00970597
f 262 263 261
f 264 263 262
f 265 263 264
f 265 266 263
f 265 267 266
f 268 267 265
f 268 269 267
f 268 270 269
f 268 265 270
f 265 264 270
f 270 264 271
f 269 270 271
f 269 271 272
f 269 272 273
f 269 273 274
f 269 274 267
f 274 275 267
f 276 275 274
f 276 277 275
f 278 277 276
f 278 279 277
f 278 280 279
f 278 273 280
f 278 276 273
f 276 274 273
f 281 280 273
f 281 282 280
f 281 283 282
f 281 284 283
f 281 273 284
f 285 284 273
f 286 284 285
f 287 284 286
f 287 283 284
f 288 283 287
f 288 289 283
f 290 289 288
f 290 291 289
f 290 292 291
f 290 288 292
f 288 293 292
f 288 286 293
f 288 287 286
f 286 285 293
f 285 294 293
f 285 273 294
f 272 294 273
f 272 271 294
f 271 295 294
f 271 264 295
f 264 296 295
f 264 262 296
f 296 262 297
f 296 297 298
f 299 296 298
f 299 300 296
f 299 298 300
f 300 298 301
f 300 301 295
f 300 295 296
f 302 295 301
f 302 294 295
f 293 294 302
f 293 302 292
f 303 292 302
f 303 301 292
f 303 302 301
f 292 301 304
f 292 304 291
f 304 298 291
f 301 298 304
f 291 298 305
f 306 291 305
f 307 291 306
f 307 308 291
f 307 309 308
f 307 310 309
f 307 306 310
f 306 305 310
f 311 310 305
f 312 310 311
f 312 309 310
f 312 313 309
f 312 314 313
f 312 311 314
f 311 305 314
f 314 305 315
f 314 315 316
f 314 316 317
f 318 314 317
f 318 319 314
f 318 320 319
f 318 321 320
f 318 322 321
f 318 317 322
f 322 317 323
f 324 322 323
f 324 321 322
f 324 320 321
f 324 325 320
f 324 326 325
f 324 323 326
f 326 323 327
f 326 327 328
f 326 328 329
f 326 329 325
f 325 329 319
f 325 319 320
f 329 282 319
f 279 282 329
f 280 282 279
f 330 279 329
f 330 277 279
f 331 277 330
f 331 275 277
f 331 332 275
f 331 330 332
f 330 329 332
f 332 329 328
f 332 328 333
f 332 333 275
f 334 275 333
f 334 335 275
f 336 335 334
f 336 275 335
f 336 267 275
f 336 266 267
f 336 337 266
f 336 334 337
f 334 333 337
f 337 333 263
f 266 337 263
f 333 261 263
f 328 261 333
f 328 327 261
f 327 317 261
f 338 317 327
f 338 323 317
f 338 327 323
f 317 316 261
f 297 261 316
f 262 261 297
f 339 297 316
f 340 297 339
f 340 298 297
f 340 339 298
f 341 298 339
f 341 342 298
f 341 339 342
f 342 339 343
f 342 343 298
f 343 315 298
f 344 315 343
f 344 339 315
f 344 343 339
f 315 339 316
f 315 305 298
f 345 319 282
f 346 319 345
f 346 314 319
f 346 313 314
f 347 313 346
f 347 348 313
f 349 348 347
f 349 308 348
f 349 289 308
f 349 283 289
f 349 350 283
f 349 347 350
f 283 350 347
f 283 347 345
f 283 345 282
f 347 346 345
f 289 291 308
f 348 308 309
f 348 309 313
o convex_3
v 0.146661 0.465945 -0.159888
v 0.130399 0.465945 -0.159888
v 0.157515 0.46048 -0.159888
v 0.146661 0.465945 -0.177448
v -0.015993 0.465945 -0.291347
v 0.113545 0.462156 -0.159888
v 0.157515 0.46048 -0.182872
v 0.164241 0.447071 -0.159888
v 0.130399 0.465945 -0.226262
v -0.015993 0.462666 -0.278343
v 0.0490342 0.465945 -0.291347
v -0.015993 0.455087 -0.313042
v 0.112685 0.461719 -0.159888
v 0.157515 0.444228 -0.215415
v 0.154801 0.457783 -0.197787
v 0.141234 0.46048 -0.231686
v 0.179222 0.417119 -0.161177
v 0.179222 0.417119 -0.159888
v 0.130399 0.461864 -0.244578
v 0.114119 0.465945 -0.242556
v -0.015993 0.456107 -0.268607
v 0.0815955 0.465945 -0.275076
v 0.0653148 0.461864 -0.29337
v 0.0490342 0.46048 -0.302195
v 0.0164919 0.455087 -0.313042
v 0.0246323 0.441532 -0.319822
v -0.015993 0.43337 -0.32389
v 0.111271 0.458949 -0.159888
v 0.0924111 0.449621 -0.172024
v 0.154801 0.441532 -0.23033
v 0.179222 0.400794 -0.19372
v 0.158871 0.43337 -0.228307
v 0.138521 0.457783 -0.238488
v 0.122259 0.457783 -0.262895
v 0.179222 -0.278482 -0.159888
v 0.114119 0.461864 -0.26085
v -0.015993 0.449694 -0.266985
v 0.097838 0.461864 -0.277099
v 0.0734552 0.457783 -0.295415
v 0.0571745 0.457783 -0.303551
v 0.0327726 0.449621 -0.313731
v 0.0653148 0.43337 -0.313731
v 0.0571745 0.425208 -0.319822
v 0.0409129 0.392705 -0.336093
v 0.0164919 0.43337 -0.32389
v -0.015993 0.384543 -0.340161
v 0.106628 0.449621 -0.159888
v 0.0924111 0.303141 -0.172024
v 0.154801 0.392705 -0.262895
v 0.175152 0.400794 -0.212036
v 0.179222 0.368292 -0.226262
v 0.175152 0.384543 -0.228307
v 0.158871 0.384543 -0.26085
v 0.105978 0.457783 -0.279144
v 0.119546 0.43337 -0.2805
v 0.137871 -0.278482 -0.159888
v 0.179222 -0.278482 -0.226262
v -0.015993 0.286962 -0.266985
v 0.0815955 0.449621 -0.297438
v 0.0815955 0.417119 -0.313731
v 0.0734552 0.408956 -0.319822
v 0.0896976 0.392705 -0.319822
v 0.0734552 0.36013 -0.336093
v 0.0490342 0.368292 -0.340161
v 0.0327726 0.384543 -0.340161
v -0.015993 -0.278482 -0.386952
v 0.106628 0.254314 -0.159888
v 0.152088 0.368292 -0.2805
v 0.173795 0.368292 -0.237132
v 0.157515 0.368292 -0.269674
v 0.105978 0.441532 -0.287279
v 0.097838 0.43337 -0.297438
v 0.119546 0.400794 -0.296771
v 0.135807 0.368292 -0.296771
v -0.015993 -0.278482 -0.291347
v 0.132883 -0.230967 -0.159888
v 0.173795 -0.278482 -0.237132
v 0.097838 0.400794 -0.313731
v 0.0815955 0.368292 -0.330002
v 0.0653148 0.351967 -0.340161
v 0.105978 0.343878 -0.319822
v 0.0531425 -0.278482 -0.379817
v 0.0449449 -0.278482 -0.383907
v 0.0368619 -0.278482 -0.386952
v 0.153464 -0.278482 -0.277766
v 0.152088 -0.278482 -0.2805
v 0.0592 -0.278482 -0.375771
v 0.157515 -0.278482 -0.269674
v 0.105978 0.408956 -0.303551
v 0.119546 0.335716 -0.313042
v 0.114119 0.351967 -0.313731
f 351 352 356
f 351 356 363
f 351 363 378
f 351 378 397
f 351 397 417
f 351 417 426
f 351 426 406
f 351 406 385
f 351 385 368
f 351 368 358
f 351 358 353
f 351 353 357
f 351 357 354
f 351 354 359
f 351 359 370
f 351 370 372
f 351 372 361
f 351 361 355
f 351 355 352
f 352 355 356
f 353 358 357
f 354 357 359
f 355 360 356
f 355 361 375
f 355 375 362
f 355 362 377
f 355 377 396
f 355 396 416
f 355 416 425
f 355 425 408
f 355 408 387
f 355 387 371
f 355 371 360
f 356 360 363
f 357 364 380
f 357 380 365
f 357 365 366
f 357 366 359
f 357 358 367
f 357 367 364
f 358 368 367
f 359 366 369
f 359 369 370
f 360 371 363
f 361 372 373
f 361 373 374
f 361 374 375
f 362 375 376
f 362 376 377
f 363 371 379
f 363 379 378
f 364 367 381
f 364 381 400
f 364 400 382
f 364 382 380
f 365 380 366
f 366 380 383
f 366 383 384
f 366 384 369
f 367 368 385
f 367 385 407
f 367 407 401
f 367 401 381
f 369 384 386
f 369 386 372
f 369 372 370
f 371 387 379
f 372 386 388
f 372 388 373
f 373 388 404
f 373 404 389
f 373 389 390
f 373 390 374
f 374 390 375
f 375 390 391
f 375 391 376
f 376 391 390
f 376 390 392
f 376 392 393
f 376 393 394
f 376 394 415
f 376 415 395
f 376 395 377
f 377 395 415
f 377 415 396
f 378 379 397
f 379 387 408
f 379 408 398
f 379 398 417
f 379 417 397
f 380 384 383
f 380 382 399
f 380 399 384
f 381 401 402
f 381 402 400
f 382 400 402
f 382 402 403
f 382 403 399
f 384 404 388
f 384 388 386
f 384 399 418
f 384 418 405
f 384 405 404
f 385 406 425
f 385 425 416
f 385 416 434
f 385 434 433
f 385 433 432
f 385 432 437
f 385 437 436
f 385 436 435
f 385 435 438
f 385 438 427
f 385 427 407
f 389 404 409
f 389 409 390
f 390 409 392
f 392 410 411
f 392 411 393
f 392 409 410
f 393 411 394
f 394 411 412
f 394 412 413
f 394 413 414
f 394 414 415
f 396 415 434
f 396 434 416
f 398 408 417
f 399 403 418
f 401 419 402
f 401 407 427
f 401 427 419
f 402 419 420
f 402 420 403
f 403 420 418
f 404 405 421
f 404 421 422
f 404 422 409
f 405 423 439
f 405 439 421
f 405 418 424
f 405 424 423
f 406 426 425
f 408 425 417
f 409 422 410
f 410 422 428
f 410 428 412
f 410 412 411
f 412 428 429
f 412 429 413
f 413 430 414
f 413 429 431
f 413 431 432
f 413 432 433
f 413 433 430
f 414 430 434
f 414 434 415
f 417 425 426
f 418 420 435
f 418 435 436
f 418 436 437
f 418 437 424
f 419 427 438
f 419 438 420
f 420 438 435
f 421 439 428
f 421 428 422
f 423 428 439
f 423 424 428
f 424 437 440
f 424 440 441
f 424 441 428
f 428 441 429
f 429 441 431
f 430 433 434
f 431 441 440
f 431 440 432
f 432 440 437
o convex_4
v -0.015993 0.465945 -0.291347
v -0.015993 -0.278482 -0.291347
v -0.015993 -0.278482 -0.386952
v -0.0701676 -0.494676 -0.25166
v -0.0701676 -0.494676 -0.329471
v -0.032344 -0.278482 -0.386952
v -0.0448223 -0.278482 -0.384596
v -0.0648865 0.351967 -0.340161
v -0.0469737 -0.278482 -0.384084
v -0.0567429 -0.278482 -0.380839
v -0.0757393 0.357433 -0.334737
v -0.0648865 0.370332 -0.336093
v -0.0486152 0.368292 -0.340161
v -0.032344 0.384543 -0.340161
v -0.015993 0.384543 -0.340161
v -0.0160727 0.43337 -0.32389
v -0.032344 0.43541 -0.319822
v -0.0486152 0.386584 -0.336093
v -0.0648865 0.419086 -0.319822
v -0.0811737 0.402835 -0.319822
v -0.0893013 0.404875 -0.315754
v -0.0730301 0.421127 -0.315754
v -0.0730301 0.453702 -0.299483
v -0.105557 0.453702 -0.283211
v -0.0893013 0.461864 -0.283211
v -0.0567588 0.461864 -0.299483
v -0.0811737 0.465945 -0.275076
v -0.0486152 0.465945 -0.291347
v -0.1137 0.465945 -0.242556
v -0.138115 0.461864 -0.23442
v -0.138115 0.453702 -0.250691
v -0.151677 0.455087 -0.209991
v -0.154386 0.461864 -0.185584
v -0.146243 0.465945 -0.177448
v -0.129972 0.465945 -0.226262
v -0.146243 0.465945 -0.159888
v -0.157096 0.46048 -0.159888
v -0.157096 0.46048 -0.177448
v -0.15845 0.451662 -0.19372
v -0.162514 0.449621 -0.177448
v -0.178801 0.417119 -0.161177
v -0.15845 0.43541 -0.226262
v -0.154386 0.437451 -0.23442
v -0.174721 0.386584 -0.226262
v -0.174721 0.402835 -0.209991
v -0.178801 0.400794 -0.19372
v -0.178801 0.417119 -0.159888
v -0.132043 0.462885 -0.159888
v -0.0160727 0.455087 -0.313042
v -0.0648865 0.451662 -0.303551
v -0.015993 0.455087 -0.313042
v -0.015993 0.43337 -0.32389
v -0.015993 0.462666 -0.278343
v -0.015993 0.449694 -0.266985
v -0.015993 0.456107 -0.268607
v -0.123724 0.455889 -0.159888
v -0.122481 0.450933 -0.159888
v -0.015993 0.286962 -0.266985
v -0.145515 -0.494676 -0.163661
v -0.122481 0.304452 -0.159888
v -0.129972 0.0916547 -0.159888
v -0.146243 -0.278482 -0.159888
v -0.178801 -0.278482 -0.159888
v -0.178801 -0.494676 -0.163661
v -0.178801 -0.494676 -0.226264
v -0.151672 -0.494676 -0.2805
v -0.157096 0.373684 -0.269674
v -0.173367 0.373684 -0.237132
v -0.154386 0.388624 -0.266962
v -0.170658 0.388624 -0.23442
v -0.178801 0.368292 -0.226262
v -0.121828 0.388624 -0.299483
v -0.13539 0.362826 -0.296771
v -0.124553 0.373684 -0.302195
v -0.105557 0.421127 -0.299483
v -0.0920106 0.389936 -0.318466
v -0.0730301 0.3723 -0.332025
v -0.108266 0.341109 -0.318466
v -0.119119 0.330323 -0.313042
v -0.151677 0.362826 -0.2805
v -0.135401 -0.494676 -0.29678
v -0.116875 -0.494676 -0.310786
v -0.11914 -0.483358 -0.313044
v -0.097435 -0.477921 -0.323898
v -0.0979029 -0.494676 -0.319592
f 443 444 442
f 445 444 443
f 446 444 445
f 446 447 444
f 448 447 446
f 448 449 447
f 448 450 449
f 448 446 450
f 450 446 451
f 450 451 449
f 452 449 451
f 453 449 452
f 453 454 449
f 455 454 453
f 455 447 454
f 455 444 447
f 455 456 444
f 455 457 456
f 455 458 457
f 459 458 455
f 459 460 458
f 459 461 460
f 459 453 461
f 459 455 453
f 461 453 462
f 461 462 463
f 461 463 460
f 463 464 460
f 463 462 464
f 464 462 465
f 466 464 465
f 466 467 464
f 468 467 466
f 468 469 467
f 468 470 469
f 468 471 470
f 468 466 471
f 471 466 472
f 471 472 473
f 474 471 473
f 475 471 474
f 475 476 471
f 475 477 476
f 475 474 477
f 474 478 477
f 474 479 478
f 480 479 474
f 480 481 479
f 480 482 481
f 480 483 482
f 480 473 483
f 480 474 473
f 483 473 484
f 483 484 485
f 483 485 486
f 483 486 487
f 483 487 482
f 482 487 488
f 482 488 479
f 482 479 481
f 478 479 488
f 478 488 489
f 477 478 489
f 477 489 442
f 477 442 470
f 476 477 470
f 476 470 471
f 469 470 442
f 469 442 490
f 469 490 467
f 467 490 491
f 464 467 491
f 460 464 491
f 458 460 491
f 458 491 490
f 458 490 457
f 457 490 492
f 493 457 492
f 493 456 457
f 493 492 456
f 492 442 456
f 492 490 442
f 456 442 444
f 494 442 489
f 494 495 442
f 496 495 494
f 496 497 495
f 496 489 497
f 496 494 489
f 497 489 498
f 497 498 495
f 495 498 499
f 495 499 442
f 499 443 442
f 499 500 443
f 501 500 499
f 502 500 501
f 502 503 500
f 502 501 503
f 503 501 488
f 504 503 488
f 504 505 503
f 504 488 505
f 505 488 506
f 505 506 500
f 505 500 503
f 506 507 500
f 506 508 507
f 509 508 506
f 509 510 508
f 511 510 509
f 511 484 510
f 511 485 484
f 511 509 485
f 509 512 485
f 509 506 512
f 512 506 488
f 487 512 488
f 487 486 512
f 486 485 512
f 510 484 472
f 510 472 465
f 513 510 465
f 513 514 510
f 513 515 514
f 513 462 515
f 513 516 462
f 513 465 516
f 516 465 462
f 517 515 462
f 517 452 515
f 517 462 452
f 452 462 518
f 453 452 518
f 453 518 462
f 452 519 515
f 452 451 519
f 519 451 520
f 519 520 515
f 514 515 520
f 514 520 451
f 514 451 521
f 514 521 510
f 510 521 508
f 521 507 508
f 521 451 507
f 522 507 451
f 522 523 507
f 522 524 523
f 522 451 524
f 525 524 451
f 526 524 525
f 526 523 524
f 526 446 523
f 526 525 446
f 525 451 446
f 523 446 507
f 446 445 507
f 445 500 507
f 445 443 500
f 466 465 472
f 473 472 484
f 501 489 488
f 498 489 501
f 498 501 499
f 454 447 449
o convex_5
v 0.179222 -0.494689 -0.0798039
v 0.152097 -0.494689 -0.0255691
v 0.168989 -0.622096 -0.0574921
v 0.179222 -0.622096 -0.0798039
v 0.179222 -0.494689 -0.22626
v 0.135801 -0.494689 -0.00928348
v 0.136432 -0.622096 -0.00867324
v 0.152693 -0.622096 -0.0249589
v 0.179222 -0.622096 -0.22626
v 0.152097 -0.494689 -0.280495
v 0.0849152 -0.494689 0.0211902
v 0.0869828 -0.505066 0.0232497
v 0.0876137 -0.622096 0.0238599
v 0.152097 -0.622096 -0.280495
v 0.135801 -0.494689 -0.296781
v 0.0648342 -0.494689 0.0302674
v 0.0652898 -0.510491 0.0341195
v 0.0652898 -0.622096 0.0341195
v 0.135801 -0.622096 -0.296781
v 0.11954 -0.494689 -0.313028
v 0.0621357 -0.494689 0.0309539
v 0.0513417 -0.494689 0.0336237
v 0.0490287 -0.494689 0.0341195
v -0.0648688 -0.622096 0.0341195
v 0.0869828 -0.622096 -0.329314
v 0.11954 -0.59185 -0.313028
v 0.0485381 -0.494689 -0.355478
v -0.0648688 -0.494689 0.0341195
v -0.0865618 -0.622096 0.0232497
v 0.0761538 -0.622096 -0.33473
v 0.0668317 -0.622096 -0.339383
v 0.0652898 -0.622096 -0.340146
v -0.0490633 -0.494689 -0.355478
v -0.0865618 -0.494689 0.0232497
v -0.13538 -0.622096 -0.00928348
v -0.0486077 -0.622096 -0.340146
v -0.116841 -0.494689 -0.310778
v -0.0603129 -0.622096 -0.334959
v -0.0927649 -0.622096 -0.319245
v -0.125322 -0.622096 -0.302959
v -0.13538 -0.622096 -0.296781
v -0.13538 -0.494689 -0.00928348
v -0.151676 -0.622096 -0.0255691
v -0.13538 -0.494689 -0.296781
v -0.151676 -0.622096 -0.280495
v -0.151676 -0.494689 -0.0255691
v -0.178801 -0.622096 -0.0798039
v -0.151676 -0.494689 -0.280495
v -0.157283 -0.622096 -0.270503
v -0.178801 -0.494689 -0.0798039
v -0.178801 -0.622096 -0.22626
v -0.17414 -0.622096 -0.237855
v -0.178801 -0.494689 -0.22626
f 527 528 529
f 527 529 530
f 527 530 535
f 527 535 531
f 527 531 536
f 527 536 541
f 527 541 546
f 527 546 553
f 527 553 559
f 527 559 563
f 527 563 570
f 527 570 574
f 527 574 579
f 527 579 576
f 527 576 572
f 527 572 568
f 527 568 560
f 527 560 554
f 527 554 549
f 527 549 548
f 527 548 547
f 527 547 542
f 527 542 537
f 527 537 532
f 527 532 528
f 528 532 533
f 528 533 534
f 528 534 529
f 529 534 533
f 529 533 539
f 529 539 544
f 529 544 550
f 529 550 555
f 529 555 561
f 529 561 569
f 529 569 573
f 529 573 577
f 529 577 578
f 529 578 575
f 529 575 571
f 529 571 567
f 529 567 566
f 529 566 565
f 529 565 564
f 529 564 562
f 529 562 558
f 529 558 557
f 529 557 556
f 529 556 551
f 529 551 545
f 529 545 540
f 529 540 535
f 529 535 530
f 531 535 540
f 531 540 536
f 532 537 538
f 532 538 539
f 532 539 533
f 536 540 545
f 536 545 541
f 537 542 538
f 538 542 543
f 538 543 539
f 539 543 544
f 541 545 552
f 541 552 546
f 542 547 543
f 543 547 548
f 543 548 549
f 543 549 554
f 543 554 550
f 543 550 544
f 545 551 552
f 546 552 553
f 550 554 560
f 550 560 555
f 551 556 553
f 551 553 552
f 553 556 557
f 553 557 558
f 553 558 562
f 553 562 559
f 555 560 568
f 555 568 561
f 559 562 564
f 559 564 565
f 559 565 566
f 559 566 567
f 559 567 563
f 561 568 572
f 561 572 569
f 563 567 570
f 567 571 574
f 567 574 570
f 569 572 576
f 569 576 573
f 571 575 574
f 573 576 579
f 573 579 577
f 574 575 578
f 574 578 579
f 577 579 578
o convex_6
v 0.228044 -0.705757 -0.0798082
v 0.228044 -0.722036 -0.0798082
v 0.228044 -0.689489 -0.0961154
v 0.225323 -0.692196 -0.0825338
v 0.219881 -0.681355 -0.0716776
v 0.211763 -0.689489 -0.0472861
v 0.184645 -0.700341 0.00699441
v 0.184645 -0.71661 0.00699441
v 0.222602 -0.727462 -0.0689521
v 0.222602 -0.732889 -0.0798082
v 0.228044 -0.722036 -0.22625
v 0.21716 -0.667805 -0.0906643
v 0.228044 -0.689489 -0.209943
v 0.179203 -0.622096 -0.0798082
v 0.20088 -0.684062 -0.0255739
v 0.187321 -0.681355 -0.00658725
v 0.154805 -0.681355 0.025981
v 0.168365 -0.700341 0.0232555
v 0.168365 -0.71661 0.0232555
v 0.190042 -0.727462 -0.00386168
v 0.219881 -0.734243 -0.0716776
v 0.211763 -0.738304 -0.0798082
v 0.222602 -0.732889 -0.22625
v 0.22394 -0.73017 -0.234381
v 0.211763 -0.722036 -0.258772
v 0.228044 -0.705757 -0.22625
v 0.21716 -0.667805 -0.204538
v 0.22394 -0.689489 -0.228283
v 0.222602 -0.678647 -0.215394
v 0.168989 -0.622096 -0.0574954
v 0.179203 -0.622096 -0.22625
v 0.152709 -0.622096 -0.0249271
v 0.138525 -0.665086 0.025981
v 0.105965 -0.681355 0.0585032
v 0.116803 -0.686781 0.0530982
v 0.136429 -0.622096 -0.00866608
v 0.119524 -0.700341 0.0557776
v 0.119524 -0.71661 0.0557776
v 0.108685 -0.727462 0.0612287
v 0.157481 -0.727462 0.0286604
v 0.154805 -0.734243 0.025981
v 0.187321 -0.734243 -0.00658725
v 0.179203 -0.738304 -0.0147178
v 0.211763 -0.738304 -0.22625
v 0.213771 -0.734243 -0.242511
v 0.19749 -0.734243 -0.275079
v 0.20766 -0.73017 -0.266903
v 0.211763 -0.705757 -0.258772
v 0.20088 -0.722036 -0.280484
v 0.219881 -0.681355 -0.230315
v 0.20766 -0.689489 -0.260805
v 0.174564 -0.622096 -0.235535
v 0.0875882 -0.622096 0.023856
v 0.0869637 -0.667805 0.0557776
v 0.0218877 -0.667805 0.0720848
v 0.0408886 -0.681355 0.0747642
v 0.0490064 -0.705757 0.0829409
v 0.0978469 -0.705757 0.0666337
v 0.0652866 -0.622096 0.0341116
v 0.108685 -0.711183 0.0612287
v 0.0978469 -0.722036 0.0666337
v 0.0490064 -0.722036 0.0829409
v 0.059845 -0.727462 0.0774898
v 0.0571688 -0.734243 0.0747642
v 0.105965 -0.734243 0.0585032
v 0.0978469 -0.738304 0.0503726
v 0.146643 -0.738304 0.0178043
v 0.195483 -0.738304 -0.258772
v 0.164975 -0.734243 -0.323863
v 0.175144 -0.73017 -0.315732
v 0.20088 -0.705757 -0.280484
v 0.168365 -0.722036 -0.329314
v 0.203601 -0.681355 -0.262837
v 0.158284 -0.622096 -0.268104
v -0.0106281 -0.667805 0.0720848
v 0.0164461 -0.689489 0.0829409
v -0.0648656 -0.622096 0.0341116
v -0.0485854 -0.722036 0.0829409
v 0.0490064 -0.732889 0.0774898
v 0.0490064 -0.738304 0.0666337
v 0.162923 -0.738304 -0.307601
v 0.146643 -0.738304 -0.323863
v 0.152084 -0.732889 -0.334719
v 0.158864 -0.73017 -0.332039
v 0.168365 -0.705757 -0.329314
v 0.184645 -0.689489 -0.296745
v 0.124966 -0.722036 -0.351026
v 0.154805 -0.697623 -0.336105
v 0.152084 -0.622096 -0.280484
v 0.171085 -0.681355 -0.311667
v 0.171085 -0.665086 -0.295406
v -0.0214667 -0.678647 0.0774898
v -0.0160251 -0.689489 0.0829409
v -0.0741876 -0.622096 0.0294458
v -0.101485 -0.681355 0.0585032
v -0.0865427 -0.678647 0.0612287
v -0.0567478 -0.73017 0.0788295
v -0.0485854 -0.732889 0.0774898
v -0.0485854 -0.705757 0.0829409
v -0.0974259 -0.722036 0.0666337
v -0.105544 -0.73017 0.0625684
v -0.0485854 -0.738304 0.0666337
v 0.114127 -0.738304 -0.34017
v 0.119524 -0.732889 -0.351026
v 0.0707282 -0.722036 -0.378143
v 0.154805 -0.681355 -0.327928
v 0.124966 -0.689489 -0.351026
v 0.122245 -0.681355 -0.352366
v 0.135804 -0.622096 -0.296745
v -0.054027 -0.694915 0.0774898
v -0.0865427 -0.622096 0.0232555
v -0.119103 -0.678647 0.0449677
v -0.150281 -0.681355 0.025981
v -0.135383 -0.689489 0.0395165
v -0.119103 -0.705757 0.0557776
v -0.099433 -0.689489 0.0625684
v -0.134045 -0.665086 0.025981
v -0.0974259 -0.732889 0.0612287
v -0.0974259 -0.705757 0.0666337
v -0.108264 -0.722036 0.0612287
v -0.119103 -0.722036 0.0557776
v -0.154384 -0.73017 0.0300463
v -0.113706 -0.734243 0.0524053
v -0.0974259 -0.738304 0.0503726
v 0.0490064 -0.738304 -0.372692
v 0.054448 -0.732889 -0.383548
v 0.0490064 -0.722036 -0.388953
v 0.0571688 -0.713902 -0.384888
v 0.0815667 -0.689489 -0.372692
v 0.0924053 -0.689489 -0.367287
v 0.130363 -0.67322 -0.34017
v 0.138525 -0.665086 -0.327928
v 0.0896845 -0.681355 -0.368627
v 0.0776863 -0.622096 -0.333979
v 0.0869637 -0.622096 -0.329314
v -0.135383 -0.622096 -0.00931282
v -0.167944 -0.705757 0.0232555
v -0.151663 -0.622096 -0.0255739
v -0.182841 -0.681355 -0.00658725
v -0.184224 -0.705757 0.00699441
v -0.108264 -0.705757 0.0612287
v -0.167944 -0.722036 0.0232555
v -0.162502 -0.734243 0.0198369
v -0.146222 -0.738304 0.0178043
v -0.0485854 -0.738304 -0.372692
v -0.0431438 -0.732889 -0.383548
v -0.0485854 -0.722036 -0.388953
v 0.0327262 -0.705757 -0.388953
v 0.0408886 -0.697623 -0.384888
v 0.0652866 -0.622096 -0.34017
v -0.161744 -0.622096 -0.0457154
v -0.201173 -0.689489 -0.0309788
v -0.191003 -0.697623 -0.00658725
v -0.184224 -0.722036 0.00699441
v -0.227623 -0.705757 -0.0798082
v -0.178782 -0.734243 0.00357592
v -0.178782 -0.738304 -0.0147178
v -0.0621448 -0.735597 -0.370013
v -0.113706 -0.738304 -0.34017
v -0.0703072 -0.727462 -0.378143
v -0.059424 -0.71661 -0.383548
v -0.0811457 -0.689489 -0.372692
v -0.0485854 -0.703732 -0.384888
v -0.0323052 -0.705757 -0.388953
v 0.0327262 -0.684062 -0.378143
v 0.0246084 -0.665086 -0.368627
v -0.0485854 -0.622096 -0.34017
v 0.0164461 -0.651526 -0.361836
v -0.178024 -0.622096 -0.0782837
v -0.217409 -0.689489 -0.0635471
v -0.223519 -0.697623 -0.0716776
v -0.205901 -0.732889 -0.0418349
v -0.189621 -0.732889 -0.00931282
v -0.1869 -0.73017 -0.00252199
v -0.227623 -0.722036 -0.0798082
v -0.223519 -0.681355 -0.0879387
v -0.227623 -0.689489 -0.0961154
v -0.211342 -0.738304 -0.0798082
v -0.108264 -0.732889 -0.351026
v -0.146222 -0.738304 -0.323863
v -0.159781 -0.735597 -0.321183
v -0.154384 -0.73017 -0.332039
v -0.124545 -0.71661 -0.351026
v -0.124545 -0.684062 -0.351026
v -0.0919843 -0.684062 -0.367287
v -0.167944 -0.727462 -0.329314
v -0.0811457 -0.678647 -0.367287
v -0.0323052 -0.684062 -0.378143
v 0.0164461 -0.662379 -0.367287
v -0.060316 -0.622096 -0.33495
v -0.0160251 -0.651526 -0.361836
v -0.0811457 -0.667805 -0.361836
v -0.178782 -0.622096 -0.0798082
v -0.222181 -0.732889 -0.0744032
v -0.227623 -0.722036 -0.22625
v -0.216739 -0.667805 -0.0961154
v -0.227623 -0.689489 -0.209943
v -0.211342 -0.738304 -0.22625
v -0.162502 -0.738304 -0.307601
v -0.192342 -0.735597 -0.272354
v -0.167944 -0.711183 -0.329314
v -0.15706 -0.700341 -0.334719
v -0.154384 -0.685416 -0.332039
v -0.138104 -0.669159 -0.332039
v -0.121824 -0.677293 -0.3483
v -0.0892635 -0.677293 -0.364561
v -0.200459 -0.727462 -0.280484
v -0.0160251 -0.662379 -0.367287
v -0.0927872 -0.622096 -0.319243
v -0.113706 -0.667805 -0.345575
v -0.178782 -0.622096 -0.22625
v -0.222181 -0.732889 -0.220799
v -0.227623 -0.705757 -0.22625
v -0.211342 -0.722036 -0.258772
v -0.216739 -0.727462 -0.247916
v -0.21946 -0.73017 -0.234381
v -0.216739 -0.667805 -0.209943
v -0.223519 -0.687452 -0.22625
v -0.205901 -0.732889 -0.253367
v -0.195062 -0.738304 -0.258772
v -0.200459 -0.711183 -0.280484
v -0.205901 -0.700341 -0.269628
v -0.173341 -0.700341 -0.318458
v -0.170664 -0.685416 -0.315732
v -0.151663 -0.622096 -0.280484
v -0.135383 -0.622096 -0.296745
v -0.125303 -0.622096 -0.302982
v -0.174143 -0.622096 -0.237845
v -0.21946 -0.685416 -0.234381
v -0.222181 -0.700341 -0.237106
v -0.211342 -0.705757 -0.258772
v -0.20318 -0.685416 -0.266903
v -0.170664 -0.669159 -0.299471
v -0.157283 -0.622096 -0.270506
f 580 581 590
f 580 590 605
f 580 605 592
f 580 592 582
f 580 582 583
f 580 583 584
f 580 584 585
f 580 585 586
f 580 586 587
f 580 587 581
f 581 587 588
f 581 588 589
f 581 589 602
f 581 602 590
f 582 591 584
f 582 584 583
f 582 592 608
f 582 608 606
f 582 606 591
f 584 591 593
f 584 593 594
f 584 594 585
f 585 594 586
f 586 594 595
f 586 595 596
f 586 596 597
f 586 597 598
f 586 598 587
f 587 598 619
f 587 619 599
f 587 599 588
f 588 600 589
f 588 599 621
f 588 621 600
f 589 600 601
f 589 601 623
f 589 623 602
f 590 602 603
f 590 603 626
f 590 626 604
f 590 604 627
f 590 627 605
f 591 606 610
f 591 610 593
f 592 605 607
f 592 607 608
f 593 609 594
f 593 610 631
f 593 631 653
f 593 653 668
f 593 668 688
f 593 688 714
f 593 714 713
f 593 713 729
f 593 729 746
f 593 746 769
f 593 769 788
f 593 788 806
f 593 806 805
f 593 805 804
f 593 804 813
f 593 813 807
f 593 807 790
f 593 790 772
f 593 772 748
f 593 748 730
f 593 730 717
f 593 717 715
f 593 715 690
f 593 690 673
f 593 673 656
f 593 656 638
f 593 638 632
f 593 632 615
f 593 615 611
f 593 611 609
f 594 611 595
f 594 609 611
f 595 611 596
f 596 612 613
f 596 613 614
f 596 614 597
f 596 611 615
f 596 615 612
f 597 614 616
f 597 616 617
f 597 617 598
f 598 617 618
f 598 618 619
f 599 619 620
f 599 620 621
f 600 621 622
f 600 622 601
f 601 622 646
f 601 646 645
f 601 645 659
f 601 659 681
f 601 681 703
f 601 703 723
f 601 723 736
f 601 736 757
f 601 757 777
f 601 777 799
f 601 799 778
f 601 778 759
f 601 759 738
f 601 738 724
f 601 724 704
f 601 704 682
f 601 682 661
f 601 661 660
f 601 660 647
f 601 647 623
f 602 623 624
f 602 624 603
f 603 624 625
f 603 625 626
f 604 626 628
f 604 628 650
f 604 650 627
f 605 627 630
f 605 630 607
f 606 608 610
f 607 629 608
f 607 630 652
f 607 652 629
f 608 629 610
f 610 629 631
f 612 632 613
f 612 615 632
f 613 633 634
f 613 634 635
f 613 635 636
f 613 636 637
f 613 637 616
f 613 616 614
f 613 632 638
f 613 638 633
f 616 637 639
f 616 639 618
f 616 618 617
f 618 639 637
f 618 637 640
f 618 640 641
f 618 641 642
f 618 642 643
f 618 643 644
f 618 644 620
f 618 620 619
f 620 644 645
f 620 645 646
f 620 646 622
f 620 622 621
f 623 647 625
f 623 625 624
f 625 648 649
f 625 649 626
f 625 647 648
f 626 649 651
f 626 651 628
f 627 650 630
f 628 651 664
f 628 664 650
f 629 652 653
f 629 653 631
f 630 650 652
f 633 638 634
f 634 654 672
f 634 672 655
f 634 655 635
f 634 638 656
f 634 656 654
f 635 655 636
f 636 655 672
f 636 672 678
f 636 678 657
f 636 657 641
f 636 641 640
f 636 640 637
f 641 657 677
f 641 677 658
f 641 658 643
f 641 643 642
f 643 658 659
f 643 659 645
f 643 645 644
f 647 660 648
f 648 661 662
f 648 662 663
f 648 663 651
f 648 651 649
f 648 660 661
f 650 664 665
f 650 665 652
f 651 663 666
f 651 666 667
f 651 667 664
f 652 668 653
f 652 665 669
f 652 669 670
f 652 670 668
f 654 671 672
f 654 656 671
f 656 673 674
f 656 674 675
f 656 675 671
f 657 676 677
f 657 678 698
f 657 698 679
f 657 679 680
f 657 680 676
f 658 677 681
f 658 681 659
f 661 682 662
f 662 682 683
f 662 683 663
f 663 683 684
f 663 684 666
f 664 667 685
f 664 685 669
f 664 669 665
f 666 684 686
f 666 686 667
f 667 686 687
f 667 687 685
f 668 670 669
f 668 669 685
f 668 685 688
f 671 689 678
f 671 678 672
f 671 675 689
f 673 690 674
f 674 691 692
f 674 692 693
f 674 693 694
f 674 694 695
f 674 695 689
f 674 689 675
f 674 690 696
f 674 696 691
f 676 680 697
f 676 697 677
f 677 697 703
f 677 703 681
f 678 689 695
f 678 695 698
f 679 698 720
f 679 720 699
f 679 699 680
f 680 699 700
f 680 700 721
f 680 721 701
f 680 701 702
f 680 702 697
f 682 704 705
f 682 705 683
f 683 705 684
f 684 705 706
f 684 706 707
f 684 707 708
f 684 708 709
f 684 709 686
f 685 687 710
f 685 710 711
f 685 711 688
f 686 709 712
f 686 712 687
f 687 712 713
f 687 713 714
f 687 714 688
f 687 688 710
f 688 711 710
f 690 715 696
f 691 696 692
f 692 716 693
f 692 696 715
f 692 715 717
f 692 717 718
f 692 718 719
f 692 719 716
f 693 716 694
f 694 700 699
f 694 699 720
f 694 720 695
f 694 716 721
f 694 721 700
f 695 720 698
f 697 702 703
f 701 721 722
f 701 722 702
f 702 722 723
f 702 723 703
f 704 724 725
f 704 725 705
f 705 725 726
f 705 726 706
f 706 726 743
f 706 743 727
f 706 727 728
f 706 728 707
f 707 728 708
f 708 712 709
f 708 728 712
f 712 728 729
f 712 729 713
f 716 719 733
f 716 733 721
f 717 730 731
f 717 731 718
f 718 731 732
f 718 732 719
f 719 732 734
f 719 734 754
f 719 754 733
f 721 733 735
f 721 735 722
f 722 735 736
f 722 736 723
f 724 737 725
f 724 738 737
f 725 739 726
f 725 737 739
f 726 740 764
f 726 764 741
f 726 741 742
f 726 742 743
f 726 739 740
f 727 743 767
f 727 767 744
f 727 744 728
f 728 744 745
f 728 745 729
f 729 745 747
f 729 747 770
f 729 770 746
f 730 748 731
f 731 748 749
f 731 749 750
f 731 750 732
f 732 750 734
f 733 751 752
f 733 752 753
f 733 753 735
f 733 754 751
f 734 750 755
f 734 755 756
f 734 756 776
f 734 776 792
f 734 792 774
f 734 774 754
f 735 753 752
f 735 752 736
f 736 752 751
f 736 751 757
f 737 758 739
f 737 738 758
f 738 759 760
f 738 760 761
f 738 761 758
f 739 762 763
f 739 763 764
f 739 764 740
f 739 758 761
f 739 761 765
f 739 765 762
f 741 764 766
f 741 766 767
f 741 767 743
f 741 743 742
f 744 767 787
f 744 787 768
f 744 768 747
f 744 747 745
f 746 770 771
f 746 771 769
f 747 768 787
f 747 787 770
f 748 772 749
f 749 772 755
f 749 755 750
f 751 754 773
f 751 773 757
f 754 774 791
f 754 791 773
f 755 772 775
f 755 775 756
f 756 775 796
f 756 796 776
f 757 773 791
f 757 791 777
f 759 778 760
f 760 765 761
f 760 778 799
f 760 799 779
f 760 779 765
f 762 765 780
f 762 780 763
f 763 780 781
f 763 781 782
f 763 782 783
f 763 783 784
f 763 784 785
f 763 785 764
f 764 785 771
f 764 771 766
f 765 779 786
f 765 786 800
f 765 800 780
f 766 771 767
f 767 771 770
f 767 770 787
f 769 771 788
f 771 785 784
f 771 784 789
f 771 789 788
f 772 790 796
f 772 796 775
f 774 792 810
f 774 810 793
f 774 793 786
f 774 786 794
f 774 794 795
f 774 795 791
f 776 796 797
f 776 797 792
f 777 791 798
f 777 798 779
f 777 779 799
f 779 798 786
f 780 800 801
f 780 801 802
f 780 802 803
f 780 803 782
f 780 782 781
f 782 803 804
f 782 804 805
f 782 805 783
f 783 805 806
f 783 806 784
f 784 806 789
f 786 793 810
f 786 810 801
f 786 801 800
f 786 798 795
f 786 795 794
f 788 789 806
f 790 807 808
f 790 808 796
f 791 795 798
f 792 797 809
f 792 809 801
f 792 801 810
f 796 808 797
f 797 808 809
f 801 811 803
f 801 803 802
f 801 809 808
f 801 808 811
f 803 811 812
f 803 812 804
f 804 811 813
f 804 812 811
f 807 813 811
f 807 811 808
o convex_7
v 0.179198 -0.278555 -0.163675
v 0.139775 -0.278555 -0.163675
v 0.179198 -0.494613 -0.163675
v 0.179198 -0.278555 -0.226274
v 0.139775 -0.494676 -0.163675
v -0.0701325 -0.278555 -0.280587
v -0.0701325 -0.299075 -0.275243
v -0.0701325 -0.312572 -0.272451
v -0.0701325 -0.494676 -0.251675
v 0.163795 -0.494676 -0.163675
v 0.179198 -0.494676 -0.177456
v 0.179198 -0.494676 -0.226274
v 0.179051 -0.494676 -0.226575
v 0.175146 -0.278555 -0.234411
v -0.0701325 -0.278555 -0.329616
v -0.0701325 -0.494676 -0.329466
v 0.173632 -0.494676 -0.237443
v 0.158888 -0.278555 -0.266957
v -0.0648842 -0.278555 -0.356428
v -0.0648842 -0.298927 -0.372701
v -0.0648842 -0.331485 -0.388973
v -0.0701325 -0.483189 -0.329616
v -0.0648842 -0.477921 -0.388973
v -0.0404736 -0.486066 -0.462202
v -0.0323204 -0.49419 -0.437792
v -0.0565114 -0.494676 -0.348051
v 0.168213 -0.494676 -0.248282
v 0.157521 -0.494676 -0.269659
v 0.152078 -0.494676 -0.280527
v 0.152078 -0.278555 -0.280527
v -0.0613935 -0.278555 -0.370359
v -0.0594407 -0.293512 -0.383569
v -0.0594407 -0.326048 -0.399842
v -0.0431832 -0.407411 -0.464934
v -0.0486023 -0.412827 -0.454065
v -0.0486023 -0.461653 -0.454065
v -0.0431832 -0.456216 -0.464934
v -0.0323204 -0.461653 -0.470368
v -0.0160629 -0.477921 -0.470368
v -0.0106194 -0.488774 -0.464934
v -0.0160629 -0.49419 -0.454065
v -0.0296108 -0.491482 -0.451363
v -0.0490661 -0.494676 -0.355497
v 0.13582 -0.494676 -0.2968
v 0.0327584 -0.49419 -0.437792
v 0.0348089 -0.490128 -0.454065
v 0.0368349 -0.486066 -0.462202
v 0.0449637 -0.469798 -0.462202
v 0.0436211 -0.461653 -0.464934
v 0.0436211 -0.412827 -0.464934
v 0.0409115 -0.404682 -0.466285
v 0.0571446 -0.339609 -0.417466
v 0.0571446 -0.32334 -0.40933
v 0.0591707 -0.278555 -0.375763
v -0.0606612 -0.278555 -0.37213
v -0.0567311 -0.278597 -0.380837
v -0.0567311 -0.311134 -0.39711
v -0.0431832 -0.326048 -0.416115
v -0.0404736 -0.40062 -0.462202
v -0.0323204 -0.391122 -0.459499
v -0.0323204 -0.412827 -0.470368
v -0.0567067 -0.278555 -0.380837
v 0.0165009 -0.477921 -0.470368
v 0.02192 -0.488774 -0.464934
v 0.0165009 -0.49419 -0.454065
v 0.0485765 -0.494676 -0.355497
v 0.119538 -0.494676 -0.313073
v 0.0348089 -0.477921 -0.466285
v 0.0327584 -0.461653 -0.470368
v 0.0327584 -0.412827 -0.470368
v 0.0327584 -0.391122 -0.459499
v 0.0165009 -0.358606 -0.443227
v 0.0246296 -0.372167 -0.450012
v 0.0327584 -0.364022 -0.443917
v 0.0409115 -0.32334 -0.417466
v 0.0531413 -0.278555 -0.379816
v -0.0404736 -0.319279 -0.413383
v -0.0160629 -0.358606 -0.443227
v -0.0323204 -0.30978 -0.410681
v -0.0160629 -0.369459 -0.448661
v -0.0486023 -0.278555 -0.383539
v 0.0165009 -0.369459 -0.448661
v 0.0327584 -0.30978 -0.410681
v 0.0368593 -0.278555 -0.386932
v 0.0449393 -0.278555 -0.383899
v -0.0469424 -0.278555 -0.38408
v -0.0447943 -0.278555 -0.38459
v -0.0323204 -0.278555 -0.386932
f 814 815 818
f 814 818 823
f 814 823 816
f 814 816 824
f 814 824 825
f 814 825 817
f 814 817 827
f 814 827 831
f 814 831 843
f 814 843 867
f 814 867 889
f 814 889 898
f 814 898 897
f 814 897 901
f 814 901 900
f 814 900 899
f 814 899 894
f 814 894 875
f 814 875 868
f 814 868 844
f 814 844 832
f 814 832 828
f 814 828 819
f 814 819 815
f 815 819 820
f 815 820 821
f 815 821 822
f 815 822 818
f 816 823 824
f 817 825 826
f 817 826 827
f 818 822 829
f 818 829 839
f 818 839 856
f 818 856 879
f 818 879 880
f 818 880 857
f 818 857 842
f 818 842 841
f 818 841 840
f 818 840 830
f 818 830 826
f 818 826 825
f 818 825 824
f 818 824 823
f 819 828 835
f 819 835 829
f 819 829 822
f 819 822 821
f 819 821 820
f 826 830 827
f 827 830 831
f 828 832 833
f 828 833 834
f 828 834 836
f 828 836 835
f 829 835 836
f 829 836 837
f 829 837 838
f 829 838 839
f 830 840 831
f 831 840 841
f 831 841 842
f 831 842 843
f 832 844 833
f 833 845 846
f 833 846 834
f 833 844 845
f 834 846 847
f 834 847 848
f 834 848 849
f 834 849 836
f 836 849 837
f 837 849 850
f 837 850 851
f 837 851 852
f 837 852 853
f 837 853 854
f 837 854 855
f 837 855 838
f 838 855 854
f 838 854 839
f 839 854 856
f 842 857 878
f 842 878 858
f 842 858 859
f 842 859 860
f 842 860 861
f 842 861 862
f 842 862 863
f 842 863 843
f 843 863 864
f 843 864 865
f 843 865 866
f 843 866 867
f 844 868 845
f 845 869 870
f 845 870 846
f 845 868 869
f 846 870 847
f 847 871 872
f 847 872 873
f 847 873 874
f 847 874 851
f 847 851 850
f 847 850 849
f 847 849 848
f 847 870 869
f 847 869 875
f 847 875 871
f 851 874 883
f 851 883 882
f 851 882 876
f 851 876 852
f 852 876 877
f 852 877 853
f 853 877 878
f 853 878 854
f 854 878 879
f 854 879 856
f 857 880 878
f 858 878 859
f 859 878 877
f 859 877 860
f 860 877 881
f 860 881 861
f 861 881 862
f 862 881 882
f 862 882 883
f 862 883 863
f 863 883 864
f 864 883 884
f 864 884 885
f 864 885 886
f 864 886 887
f 864 887 888
f 864 888 866
f 864 866 865
f 866 888 889
f 866 889 867
f 868 875 869
f 871 875 890
f 871 890 872
f 872 890 892
f 872 892 873
f 873 891 893
f 873 893 874
f 873 892 891
f 874 893 895
f 874 895 883
f 875 894 892
f 875 892 890
f 876 882 881
f 876 881 877
f 878 880 879
f 883 895 885
f 883 885 884
f 885 887 886
f 885 895 893
f 885 893 891
f 885 891 892
f 885 892 896
f 885 896 887
f 887 896 888
f 888 896 897
f 888 897 898
f 888 898 889
f 892 894 899
f 892 899 900
f 892 900 901
f 892 901 897
f 892 897 896
